<?xml version="1.0" encoding="UTF-8" standalone="no"?>
<!-- Created with Inkscape (http://www.inkscape.org/) -->

<svg
   width="32"
   height="32"
   viewBox="0 0 8.4666665 8.4666669"
   version="1.1"
   id="svg914"
   inkscape:version="1.1.2 (b8e25be8, 2022-02-05)"
   sodipodi:docname="dep2.svg"
   xmlns:inkscape="http://www.inkscape.org/namespaces/inkscape"
   xmlns:sodipodi="http://sodipodi.sourceforge.net/DTD/sodipodi-0.dtd"
   xmlns:xlink="http://www.w3.org/1999/xlink"
   xmlns="http://www.w3.org/2000/svg"
   xmlns:svg="http://www.w3.org/2000/svg">
  <sodipodi:namedview
     id="namedview916"
     pagecolor="#ffffff"
     bordercolor="#666666"
     borderopacity="1.0"
     inkscape:pageshadow="2"
     inkscape:pageopacity="0.0"
     inkscape:pagecheckerboard="0"
     inkscape:document-units="mm"
     showgrid="false"
     inkscape:zoom="6.7099421"
     inkscape:cx="31.14781"
     inkscape:cy="35.469755"
     inkscape:window-width="1920"
     inkscape:window-height="1080"
     inkscape:window-x="139"
     inkscape:window-y="0"
     inkscape:window-maximized="0"
     inkscape:current-layer="layer4"
     units="px" />
  <defs
     id="defs911">
    <linearGradient
       inkscape:collect="always"
       id="linearGradient34425">
      <stop
         style="stop-color:#ae4033;stop-opacity:1"
         offset="0"
         id="stop34421" />
      <stop
         style="stop-color:#ffff00;stop-opacity:1"
         offset="1"
         id="stop34423" />
    </linearGradient>
    <linearGradient
       inkscape:collect="always"
       id="linearGradient14396">
      <stop
         style="stop-color:#b34435;stop-opacity:1"
         offset="0"
         id="stop14392" />
      <stop
         style="stop-color:#ffff00;stop-opacity:1"
         offset="1"
         id="stop14394" />
    </linearGradient>
    <linearGradient
       inkscape:collect="always"
       xlink:href="#linearGradient14396"
       id="linearGradient14398"
       x1="103.43914"
       y1="130.10196"
       x2="105.96089"
       y2="85.778992"
       gradientUnits="userSpaceOnUse"
       gradientTransform="matrix(0.12028297,0.0275442,-0.0275442,0.12028297,-4.6285914,-10.032134)" />
    <linearGradient
       x1="0"
       y1="0"
       x2="1"
       y2="0"
       gradientUnits="userSpaceOnUse"
       gradientTransform="matrix(-79.951225,-122.69254,122.69254,-79.951225,409.27066,426.72266)"
       spreadMethod="pad"
       id="linearGradient19427">
      <stop
         style="stop-opacity:1;stop-color:#8c2c25"
         offset="0"
         id="stop19423" />
      <stop
         style="stop-opacity:1;stop-color:#de5c57"
         offset="1"
         id="stop19425" />
    </linearGradient>
    <clipPath
       clipPathUnits="userSpaceOnUse"
       id="clipPath19405">
      <path
         d="M 0,500 H 500 V 0 H 0 Z"
         id="path19403" />
    </clipPath>
    <linearGradient
       x1="0"
       y1="0"
       x2="1"
       y2="0"
       gradientUnits="userSpaceOnUse"
       gradientTransform="matrix(-30.972202,-47.484215,47.484215,-30.972202,383.43195,386.99799)"
       spreadMethod="pad"
       id="linearGradient19395">
      <stop
         style="stop-opacity:1;stop-color:#e9644c"
         offset="0"
         id="stop19389" />
      <stop
         style="stop-opacity:1;stop-color:#e9644c"
         offset="0.32199253"
         id="stop19391" />
      <stop
         style="stop-opacity:1;stop-color:#8c2c25"
         offset="1"
         id="stop19393" />
    </linearGradient>
    <linearGradient
       x1="0"
       y1="0"
       x2="1"
       y2="0"
       gradientUnits="userSpaceOnUse"
       gradientTransform="matrix(-108.80192,-172.56386,172.56386,-108.80192,416.32626,440.44836)"
       spreadMethod="pad"
       id="linearGradient19373">
      <stop
         style="stop-opacity:1;stop-color:#e9644c"
         offset="0"
         id="stop19369" />
      <stop
         style="stop-opacity:1;stop-color:#8c2c25"
         offset="1"
         id="stop19371" />
    </linearGradient>
    <clipPath
       clipPathUnits="userSpaceOnUse"
       id="clipPath18811">
      <path
         d="M 0,500 H 500 V 0 H 0 Z"
         id="path18809" />
    </clipPath>
    <clipPath
       clipPathUnits="userSpaceOnUse"
       id="clipPath18819">
      <path
         d="m 366.512,381.65 h 15.924 v -16 h -15.924 z"
         id="path18817" />
    </clipPath>
    <linearGradient
       x1="0"
       y1="0"
       x2="1"
       y2="0"
       gradientUnits="userSpaceOnUse"
       gradientTransform="matrix(-78.160545,-121.92711,121.92711,-78.160545,396.91565,408.25101)"
       spreadMethod="pad"
       id="linearGradient18801">
      <stop
         style="stop-opacity:1;stop-color:#852f21"
         offset="0"
         id="stop18797" />
      <stop
         style="stop-opacity:1;stop-color:#e9644c"
         offset="1"
         id="stop18799" />
    </linearGradient>
    <linearGradient
       inkscape:collect="always"
       xlink:href="#linearGradient34425"
       id="linearGradient38419"
       gradientUnits="userSpaceOnUse"
       x1="91.485138"
       y1="83.018066"
       x2="107.00784"
       y2="63.080784"
       gradientTransform="matrix(0.12028297,0.0275442,-0.0275442,0.12028297,-4.8301314,-10.109611)" />
  </defs>
  <g
     inkscape:groupmode="layer"
     id="layer4"
     inkscape:label="Capa 4"
     style="display:inline">
    <g
       id="g18785"
       style="display:none"
       transform="matrix(0.35277777,0,0,-0.35277777,36.630115,259.55758)">
      <g
         id="g18787">
        <g
           id="g18793">
          <g
             id="g18795">
            <path
               d="m 340.408,393.818 c -10.679,-19.252 -3.728,-43.517 15.525,-54.196 v 0 c 19.253,-10.679 43.517,-3.729 54.196,15.524 v 0 c 10.679,19.253 3.728,43.518 -15.525,54.196 v 0 c -6.125,3.398 -12.76,5.011 -19.3,5.011 v 0 c -14.019,0.002 -27.614,-7.406 -34.896,-20.535 m 5.026,-7.649 c -3.69,6.143 -5.308,9.483 11.507,19.58 v 0 c 16.815,10.097 19.002,7.098 22.691,0.956 v 0 c 3.688,-6.143 -4.697,-18.326 -10.256,-21.664 v 0 c -2.859,-1.717 -8.135,-2.994 -13.086,-2.994 v 0 c -4.677,0 -9.065,1.139 -10.856,4.122 m 41.479,-10.855 c -0.112,6.483 5.785,20.047 12.948,20.169 v 0 c 7.164,0.124 10.867,-0.144 11.203,-19.755 v 0 c 0.337,-19.611 -3.354,-20.006 -10.517,-20.129 v 0 c -0.033,-10e-4 -0.066,-10e-4 -0.098,-10e-4 v 0 c -7.124,-0.001 -13.425,13.261 -13.536,19.716 m -15.12,-7.099 c -3.462,1.92 -4.711,6.282 -2.791,9.744 v 0 c 1.92,3.46 6.282,4.71 9.742,2.79 v 0 c 3.462,-1.919 4.711,-6.282 2.791,-9.743 v 0 c -1.309,-2.359 -3.754,-3.691 -6.274,-3.691 v 0 c -1.175,-10e-4 -2.367,0.289 -3.468,0.9 m -13.789,-24.348 c -17.152,9.513 -15.649,12.906 -12.174,19.172 v 0 c 3.476,6.265 18.219,5.096 23.89,1.951 v 0 c 5.671,-3.146 14.469,-15.034 10.994,-21.3 v 0 c -1.893,-3.413 -3.373,-5.878 -7.1,-5.878 v 0 c -3.115,0 -7.801,1.723 -15.61,6.055"
               style="fill:url(#linearGradient18801);stroke:none"
               id="path18803" />
          </g>
        </g>
      </g>
    </g>
    <g
       id="g18805"
       style="display:none"
       transform="matrix(0.35277777,0,0,-0.35277777,36.630115,259.55758)">
      <g
         id="g18807"
         clip-path="url(#clipPath18811)">
        <g
           id="g18813">
          <g
             id="g18815" />
          <g
             id="g19355">
            <g
               clip-path="url(#clipPath18819)"
               id="g19353">
              <g
                 transform="translate(367.413,376.2932)"
                 id="g18823">
                <path
                   d="m 0,0 c -1.92,-3.461 -0.67,-7.823 2.791,-9.743 3.461,-1.92 7.823,-0.67 9.742,2.791 1.92,3.461 0.671,7.823 -2.79,9.743 C 6.282,4.711 1.92,3.461 0,0 M 2.344,-1.3 C 3.545,0.867 6.276,1.649 8.443,0.447 10.609,-0.755 11.392,-3.485 10.19,-5.652 8.988,-7.819 6.257,-8.601 4.091,-7.399 1.924,-6.197 1.142,-3.467 2.344,-1.3"
                   style="fill:#ffffff;fill-opacity:1;fill-rule:nonzero;stroke:none"
                   id="path18821" />
              </g>
              <g
                 transform="translate(367.425,376.3058)"
                 id="g18827">
                <path
                   d="m 0,0 c -1.92,-3.461 -0.67,-7.823 2.791,-9.743 3.461,-1.92 7.823,-0.67 9.742,2.791 1.92,3.461 0.671,7.823 -2.79,9.743 C 6.282,4.711 1.92,3.461 0,0 M 2.344,-1.3 C 3.545,0.867 6.276,1.649 8.443,0.447 10.609,-0.755 11.392,-3.485 10.19,-5.652 8.988,-7.819 6.257,-8.601 4.091,-7.399 1.924,-6.197 1.142,-3.467 2.344,-1.3"
                   style="fill:#fffefe;fill-opacity:1;fill-rule:nonzero;stroke:none"
                   id="path18825" />
              </g>
              <g
                 transform="translate(367.4371,376.3184)"
                 id="g18831">
                <path
                   d="m 0,0 c -1.92,-3.461 -0.67,-7.823 2.791,-9.743 3.461,-1.92 7.823,-0.67 9.742,2.791 1.92,3.461 0.671,7.823 -2.79,9.743 C 6.282,4.711 1.92,3.461 0,0 M 2.344,-1.3 C 3.545,0.867 6.276,1.649 8.443,0.447 10.609,-0.755 11.392,-3.485 10.19,-5.652 8.988,-7.819 6.257,-8.601 4.091,-7.399 1.924,-6.197 1.142,-3.467 2.344,-1.3"
                   style="fill:#fefcfc;fill-opacity:1;fill-rule:nonzero;stroke:none"
                   id="path18829" />
              </g>
              <g
                 transform="translate(367.4491,376.3311)"
                 id="g18835">
                <path
                   d="m 0,0 c -1.92,-3.461 -0.67,-7.823 2.791,-9.743 3.461,-1.92 7.823,-0.67 9.742,2.791 1.92,3.461 0.671,7.823 -2.79,9.743 C 6.282,4.711 1.92,3.461 0,0 M 2.344,-1.3 C 3.545,0.867 6.276,1.649 8.443,0.447 10.609,-0.755 11.392,-3.485 10.19,-5.652 8.988,-7.819 6.257,-8.601 4.091,-7.399 1.924,-6.197 1.142,-3.467 2.344,-1.3"
                   style="fill:#fefbfb;fill-opacity:1;fill-rule:nonzero;stroke:none"
                   id="path18833" />
              </g>
              <g
                 transform="translate(367.4611,376.3437)"
                 id="g18839">
                <path
                   d="m 0,0 c -1.92,-3.461 -0.67,-7.823 2.791,-9.743 3.461,-1.92 7.823,-0.67 9.743,2.791 1.919,3.461 0.67,7.823 -2.791,9.743 C 6.282,4.711 1.92,3.461 0,0 M 2.344,-1.3 C 3.545,0.867 6.276,1.649 8.443,0.447 10.609,-0.755 11.392,-3.485 10.19,-5.652 8.988,-7.819 6.257,-8.601 4.091,-7.399 1.924,-6.197 1.142,-3.467 2.344,-1.3"
                   style="fill:#fdfaf9;fill-opacity:1;fill-rule:nonzero;stroke:none"
                   id="path18837" />
              </g>
              <g
                 transform="translate(367.4732,376.3563)"
                 id="g18843">
                <path
                   d="m 0,0 c -1.92,-3.461 -0.67,-7.823 2.791,-9.743 3.461,-1.92 7.823,-0.67 9.742,2.791 1.92,3.461 0.671,7.823 -2.79,9.743 C 6.282,4.711 1.92,3.461 0,0 M 2.344,-1.3 C 3.545,0.867 6.276,1.649 8.443,0.447 10.609,-0.755 11.392,-3.485 10.19,-5.652 8.988,-7.819 6.257,-8.601 4.091,-7.399 1.924,-6.197 1.142,-3.467 2.344,-1.3"
                   style="fill:#fdf8f8;fill-opacity:1;fill-rule:nonzero;stroke:none"
                   id="path18841" />
              </g>
              <g
                 transform="translate(367.4852,376.3689)"
                 id="g18847">
                <path
                   d="m 0,0 c -1.92,-3.461 -0.67,-7.823 2.791,-9.743 3.461,-1.92 7.823,-0.67 9.742,2.791 1.92,3.461 0.671,7.823 -2.79,9.743 C 6.282,4.711 1.92,3.461 0,0 M 2.344,-1.3 C 3.545,0.867 6.276,1.649 8.443,0.447 10.609,-0.755 11.392,-3.485 10.19,-5.652 8.988,-7.819 6.257,-8.601 4.091,-7.399 1.924,-6.197 1.142,-3.467 2.344,-1.3"
                   style="fill:#fcf7f6;fill-opacity:1;fill-rule:nonzero;stroke:none"
                   id="path18845" />
              </g>
              <g
                 transform="translate(367.4973,376.3815)"
                 id="g18851">
                <path
                   d="m 0,0 c -1.92,-3.461 -0.67,-7.823 2.791,-9.743 3.461,-1.92 7.823,-0.67 9.742,2.791 1.92,3.461 0.671,7.823 -2.79,9.743 C 6.282,4.711 1.92,3.461 0,0 M 2.344,-1.3 C 3.545,0.867 6.276,1.649 8.443,0.447 10.609,-0.755 11.392,-3.485 10.19,-5.652 8.988,-7.819 6.257,-8.601 4.091,-7.399 1.924,-6.197 1.142,-3.467 2.344,-1.3"
                   style="fill:#fcf6f5;fill-opacity:1;fill-rule:nonzero;stroke:none"
                   id="path18849" />
              </g>
              <g
                 transform="translate(367.5093,376.3941)"
                 id="g18855">
                <path
                   d="m 0,0 c -1.92,-3.461 -0.67,-7.823 2.791,-9.743 3.461,-1.92 7.823,-0.67 9.742,2.791 1.92,3.461 0.671,7.823 -2.79,9.743 C 6.282,4.711 1.92,3.461 0,0 M 2.344,-1.3 C 3.545,0.867 6.276,1.649 8.443,0.447 10.609,-0.755 11.392,-3.485 10.19,-5.652 8.988,-7.819 6.257,-8.601 4.091,-7.399 1.924,-6.197 1.142,-3.467 2.344,-1.3"
                   style="fill:#fcf4f3;fill-opacity:1;fill-rule:nonzero;stroke:none"
                   id="path18853" />
              </g>
              <g
                 transform="translate(367.5213,376.4067)"
                 id="g18859">
                <path
                   d="m 0,0 c -1.92,-3.461 -0.67,-7.823 2.791,-9.743 3.461,-1.92 7.823,-0.67 9.743,2.791 1.919,3.461 0.67,7.823 -2.791,9.743 C 6.282,4.711 1.92,3.461 0,0 M 2.344,-1.3 C 3.545,0.867 6.276,1.649 8.443,0.447 10.609,-0.755 11.392,-3.485 10.19,-5.652 8.988,-7.819 6.257,-8.601 4.091,-7.399 1.924,-6.197 1.142,-3.467 2.344,-1.3"
                   style="fill:#fbf3f2;fill-opacity:1;fill-rule:nonzero;stroke:none"
                   id="path18857" />
              </g>
              <g
                 transform="translate(367.5334,376.4193)"
                 id="g18863">
                <path
                   d="m 0,0 c -1.92,-3.461 -0.67,-7.823 2.791,-9.743 3.461,-1.92 7.823,-0.67 9.742,2.791 1.92,3.461 0.671,7.823 -2.79,9.743 C 6.282,4.711 1.92,3.461 0,0 M 2.344,-1.3 C 3.545,0.867 6.276,1.649 8.443,0.447 10.609,-0.755 11.392,-3.485 10.19,-5.652 8.988,-7.819 6.257,-8.601 4.091,-7.399 1.924,-6.197 1.142,-3.467 2.344,-1.3"
                   style="fill:#fbf2f0;fill-opacity:1;fill-rule:nonzero;stroke:none"
                   id="path18861" />
              </g>
              <g
                 transform="translate(367.5454,376.432)"
                 id="g18867">
                <path
                   d="m 0,0 c -1.92,-3.461 -0.67,-7.823 2.791,-9.743 3.461,-1.92 7.823,-0.67 9.742,2.791 1.92,3.461 0.671,7.823 -2.79,9.743 C 6.282,4.711 1.92,3.461 0,0 M 2.344,-1.3 C 3.545,0.867 6.276,1.649 8.443,0.447 10.609,-0.755 11.392,-3.485 10.19,-5.652 8.988,-7.819 6.257,-8.601 4.091,-7.399 1.924,-6.197 1.142,-3.467 2.344,-1.3"
                   style="fill:#faf0ef;fill-opacity:1;fill-rule:nonzero;stroke:none"
                   id="path18865" />
              </g>
              <g
                 transform="translate(367.5574,376.4446)"
                 id="g18871">
                <path
                   d="m 0,0 c -1.92,-3.461 -0.67,-7.823 2.791,-9.743 3.461,-1.92 7.823,-0.67 9.742,2.791 1.92,3.461 0.671,7.823 -2.79,9.743 C 6.282,4.711 1.92,3.461 0,0 M 2.344,-1.3 C 3.545,0.867 6.276,1.649 8.443,0.447 10.609,-0.755 11.392,-3.485 10.19,-5.652 8.988,-7.819 6.257,-8.601 4.091,-7.399 1.924,-6.197 1.142,-3.467 2.344,-1.3"
                   style="fill:#faefed;fill-opacity:1;fill-rule:nonzero;stroke:none"
                   id="path18869" />
              </g>
              <g
                 transform="translate(367.5695,376.4572)"
                 id="g18875">
                <path
                   d="m 0,0 c -1.92,-3.461 -0.67,-7.823 2.791,-9.743 3.461,-1.92 7.823,-0.67 9.742,2.791 1.92,3.461 0.671,7.823 -2.79,9.743 C 6.282,4.711 1.92,3.461 0,0 M 2.344,-1.3 C 3.545,0.867 6.276,1.649 8.443,0.447 10.609,-0.755 11.392,-3.485 10.19,-5.652 8.988,-7.819 6.257,-8.601 4.091,-7.399 1.924,-6.197 1.142,-3.467 2.344,-1.3"
                   style="fill:#f9edec;fill-opacity:1;fill-rule:nonzero;stroke:none"
                   id="path18873" />
              </g>
              <g
                 transform="translate(367.5815,376.4698)"
                 id="g18879">
                <path
                   d="m 0,0 c -1.92,-3.461 -0.67,-7.823 2.791,-9.743 3.461,-1.92 7.823,-0.67 9.743,2.791 1.919,3.461 0.67,7.823 -2.791,9.743 C 6.282,4.711 1.92,3.461 0,0 M 2.344,-1.3 C 3.545,0.867 6.276,1.649 8.443,0.447 10.609,-0.755 11.392,-3.485 10.19,-5.652 8.988,-7.819 6.257,-8.601 4.091,-7.399 1.924,-6.197 1.142,-3.467 2.344,-1.3"
                   style="fill:#f9ecea;fill-opacity:1;fill-rule:nonzero;stroke:none"
                   id="path18877" />
              </g>
              <g
                 transform="translate(367.5935,376.4824)"
                 id="g18883">
                <path
                   d="m 0,0 c -1.92,-3.461 -0.67,-7.823 2.791,-9.743 3.461,-1.92 7.823,-0.67 9.742,2.791 1.92,3.461 0.671,7.823 -2.79,9.743 C 6.282,4.711 1.92,3.461 0,0 M 2.344,-1.3 C 3.545,0.867 6.276,1.649 8.443,0.447 10.609,-0.755 11.392,-3.485 10.19,-5.652 8.988,-7.819 6.257,-8.601 4.091,-7.399 1.924,-6.197 1.142,-3.467 2.344,-1.3"
                   style="fill:#f9ebe9;fill-opacity:1;fill-rule:nonzero;stroke:none"
                   id="path18881" />
              </g>
              <g
                 transform="translate(367.6056,376.495)"
                 id="g18887">
                <path
                   d="m 0,0 c -1.92,-3.461 -0.67,-7.823 2.791,-9.743 3.461,-1.92 7.823,-0.67 9.742,2.791 1.92,3.461 0.671,7.823 -2.79,9.743 C 6.282,4.711 1.92,3.461 0,0 M 2.344,-1.3 C 3.545,0.867 6.276,1.649 8.443,0.447 10.609,-0.755 11.392,-3.485 10.19,-5.652 8.988,-7.819 6.257,-8.601 4.091,-7.399 1.924,-6.197 1.142,-3.467 2.344,-1.3"
                   style="fill:#f8e9e7;fill-opacity:1;fill-rule:nonzero;stroke:none"
                   id="path18885" />
              </g>
              <g
                 transform="translate(367.6176,376.5077)"
                 id="g18891">
                <path
                   d="m 0,0 c -1.92,-3.461 -0.67,-7.823 2.791,-9.743 3.461,-1.92 7.823,-0.67 9.742,2.791 1.92,3.461 0.671,7.823 -2.79,9.743 C 6.282,4.711 1.92,3.461 0,0 M 2.344,-1.3 C 3.545,0.867 6.276,1.649 8.443,0.447 10.609,-0.755 11.392,-3.485 10.19,-5.652 8.988,-7.819 6.257,-8.601 4.091,-7.399 1.924,-6.197 1.142,-3.467 2.344,-1.3"
                   style="fill:#f8e8e6;fill-opacity:1;fill-rule:nonzero;stroke:none"
                   id="path18889" />
              </g>
              <g
                 transform="translate(367.6296,376.5203)"
                 id="g18895">
                <path
                   d="m 0,0 c -1.92,-3.461 -0.67,-7.823 2.791,-9.743 3.461,-1.92 7.823,-0.67 9.742,2.791 1.92,3.461 0.671,7.823 -2.79,9.743 C 6.282,4.711 1.92,3.461 0,0 M 2.344,-1.3 C 3.545,0.867 6.276,1.649 8.443,0.447 10.609,-0.755 11.392,-3.485 10.19,-5.652 8.988,-7.819 6.257,-8.601 4.091,-7.399 1.924,-6.197 1.142,-3.467 2.344,-1.3"
                   style="fill:#f7e7e4;fill-opacity:1;fill-rule:nonzero;stroke:none"
                   id="path18893" />
              </g>
              <g
                 transform="translate(367.6417,376.5329)"
                 id="g18899">
                <path
                   d="m 0,0 c -1.92,-3.461 -0.67,-7.823 2.791,-9.743 3.461,-1.92 7.823,-0.67 9.743,2.791 1.919,3.461 0.67,7.823 -2.791,9.743 C 6.282,4.711 1.92,3.461 0,0 M 2.344,-1.3 C 3.545,0.867 6.276,1.649 8.443,0.447 10.609,-0.755 11.392,-3.485 10.19,-5.652 8.988,-7.819 6.257,-8.601 4.091,-7.399 1.924,-6.197 1.142,-3.467 2.344,-1.3"
                   style="fill:#f7e5e3;fill-opacity:1;fill-rule:nonzero;stroke:none"
                   id="path18897" />
              </g>
              <g
                 transform="translate(367.6537,376.5455)"
                 id="g18903">
                <path
                   d="m 0,0 c -1.92,-3.461 -0.67,-7.823 2.791,-9.743 3.461,-1.92 7.823,-0.67 9.742,2.791 1.92,3.461 0.671,7.823 -2.79,9.743 C 6.282,4.711 1.92,3.461 0,0 M 2.344,-1.3 C 3.545,0.867 6.276,1.649 8.443,0.447 10.609,-0.755 11.392,-3.485 10.19,-5.652 8.988,-7.819 6.257,-8.601 4.091,-7.399 1.924,-6.197 1.142,-3.467 2.344,-1.3"
                   style="fill:#f7e4e1;fill-opacity:1;fill-rule:nonzero;stroke:none"
                   id="path18901" />
              </g>
              <g
                 transform="translate(367.6657,376.5581)"
                 id="g18907">
                <path
                   d="m 0,0 c -1.92,-3.461 -0.67,-7.823 2.791,-9.743 3.461,-1.92 7.823,-0.67 9.742,2.791 1.92,3.461 0.671,7.823 -2.79,9.743 C 6.282,4.711 1.92,3.461 0,0 M 2.344,-1.3 C 3.545,0.867 6.276,1.649 8.443,0.447 10.609,-0.755 11.392,-3.485 10.19,-5.652 8.988,-7.819 6.257,-8.601 4.091,-7.399 1.924,-6.197 1.142,-3.467 2.344,-1.3"
                   style="fill:#f6e3e0;fill-opacity:1;fill-rule:nonzero;stroke:none"
                   id="path18905" />
              </g>
              <g
                 transform="translate(367.6778,376.5707)"
                 id="g18911">
                <path
                   d="m 0,0 c -1.92,-3.461 -0.67,-7.823 2.791,-9.743 3.461,-1.92 7.823,-0.67 9.742,2.791 1.92,3.461 0.671,7.823 -2.79,9.743 C 6.282,4.711 1.92,3.461 0,0 M 2.344,-1.3 C 3.545,0.867 6.276,1.649 8.443,0.447 10.609,-0.755 11.392,-3.485 10.19,-5.652 8.988,-7.819 6.257,-8.601 4.091,-7.399 1.924,-6.197 1.142,-3.467 2.344,-1.3"
                   style="fill:#f6e1de;fill-opacity:1;fill-rule:nonzero;stroke:none"
                   id="path18909" />
              </g>
              <g
                 transform="translate(367.6898,376.5833)"
                 id="g18915">
                <path
                   d="m 0,0 c -1.92,-3.461 -0.67,-7.823 2.791,-9.743 3.461,-1.92 7.823,-0.67 9.742,2.791 1.92,3.461 0.671,7.823 -2.79,9.743 C 6.282,4.711 1.92,3.461 0,0 M 2.344,-1.3 C 3.545,0.867 6.276,1.649 8.443,0.447 10.609,-0.755 11.392,-3.485 10.19,-5.652 8.988,-7.819 6.257,-8.601 4.091,-7.399 1.924,-6.197 1.142,-3.467 2.344,-1.3"
                   style="fill:#f5e0dd;fill-opacity:1;fill-rule:nonzero;stroke:none"
                   id="path18913" />
              </g>
              <g
                 transform="translate(367.7018,376.5959)"
                 id="g18919">
                <path
                   d="m 0,0 c -1.92,-3.461 -0.67,-7.823 2.791,-9.743 3.461,-1.92 7.823,-0.67 9.743,2.791 1.919,3.461 0.67,7.823 -2.791,9.743 C 6.282,4.711 1.92,3.461 0,0 M 2.344,-1.3 C 3.545,0.867 6.276,1.649 8.443,0.447 10.609,-0.755 11.392,-3.485 10.19,-5.652 8.988,-7.819 6.257,-8.601 4.091,-7.399 1.924,-6.197 1.142,-3.467 2.344,-1.3"
                   style="fill:#f5dfdb;fill-opacity:1;fill-rule:nonzero;stroke:none"
                   id="path18917" />
              </g>
              <g
                 transform="translate(367.7139,376.6086)"
                 id="g18923">
                <path
                   d="m 0,0 c -1.92,-3.461 -0.67,-7.823 2.791,-9.743 3.461,-1.92 7.823,-0.67 9.742,2.791 1.92,3.461 0.671,7.823 -2.79,9.743 C 6.282,4.711 1.92,3.461 0,0 M 2.344,-1.3 C 3.545,0.867 6.276,1.649 8.443,0.447 10.609,-0.755 11.392,-3.485 10.19,-5.652 8.988,-7.819 6.257,-8.601 4.091,-7.399 1.924,-6.197 1.142,-3.467 2.344,-1.3"
                   style="fill:#f4ddda;fill-opacity:1;fill-rule:nonzero;stroke:none"
                   id="path18921" />
              </g>
              <g
                 transform="translate(367.7259,376.6212)"
                 id="g18927">
                <path
                   d="m 0,0 c -1.92,-3.461 -0.67,-7.823 2.791,-9.743 3.461,-1.92 7.823,-0.67 9.742,2.791 1.92,3.461 0.671,7.823 -2.79,9.743 C 6.282,4.711 1.92,3.461 0,0 M 2.344,-1.3 C 3.545,0.867 6.276,1.649 8.443,0.447 10.609,-0.755 11.392,-3.485 10.19,-5.652 8.988,-7.819 6.257,-8.601 4.091,-7.399 1.924,-6.197 1.142,-3.467 2.344,-1.3"
                   style="fill:#f4dcd8;fill-opacity:1;fill-rule:nonzero;stroke:none"
                   id="path18925" />
              </g>
              <g
                 transform="translate(367.738,376.6338)"
                 id="g18931">
                <path
                   d="m 0,0 c -1.92,-3.461 -0.67,-7.823 2.791,-9.743 3.461,-1.92 7.823,-0.67 9.742,2.791 1.92,3.461 0.671,7.823 -2.79,9.743 C 6.282,4.711 1.92,3.461 0,0 M 2.344,-1.3 C 3.545,0.867 6.276,1.649 8.443,0.447 10.609,-0.755 11.392,-3.485 10.19,-5.652 8.988,-7.819 6.257,-8.601 4.091,-7.399 1.924,-6.197 1.142,-3.467 2.344,-1.3"
                   style="fill:#f4dbd7;fill-opacity:1;fill-rule:nonzero;stroke:none"
                   id="path18929" />
              </g>
              <g
                 transform="translate(367.75,376.6464)"
                 id="g18935">
                <path
                   d="m 0,0 c -1.92,-3.461 -0.67,-7.823 2.791,-9.743 3.461,-1.92 7.823,-0.67 9.742,2.791 1.92,3.461 0.671,7.823 -2.79,9.743 C 6.282,4.711 1.92,3.461 0,0 M 2.344,-1.3 C 3.545,0.867 6.276,1.649 8.443,0.447 10.609,-0.755 11.392,-3.485 10.19,-5.652 8.988,-7.819 6.257,-8.601 4.091,-7.399 1.924,-6.197 1.142,-3.467 2.344,-1.3"
                   style="fill:#f3d9d5;fill-opacity:1;fill-rule:nonzero;stroke:none"
                   id="path18933" />
              </g>
              <g
                 transform="translate(367.762,376.659)"
                 id="g18939">
                <path
                   d="m 0,0 c -1.92,-3.461 -0.67,-7.823 2.791,-9.743 3.461,-1.92 7.823,-0.67 9.743,2.791 1.919,3.461 0.67,7.823 -2.791,9.743 C 6.282,4.711 1.92,3.461 0,0 M 2.344,-1.3 C 3.545,0.867 6.276,1.649 8.443,0.447 10.609,-0.755 11.392,-3.485 10.19,-5.652 8.988,-7.819 6.257,-8.601 4.091,-7.399 1.924,-6.197 1.142,-3.467 2.344,-1.3"
                   style="fill:#f3d8d4;fill-opacity:1;fill-rule:nonzero;stroke:none"
                   id="path18937" />
              </g>
              <g
                 transform="translate(367.7741,376.6717)"
                 id="g18943">
                <path
                   d="m 0,0 c -1.92,-3.461 -0.67,-7.823 2.791,-9.743 3.461,-1.92 7.823,-0.67 9.742,2.791 1.92,3.461 0.671,7.823 -2.79,9.743 C 6.282,4.711 1.92,3.461 0,0 M 2.344,-1.3 C 3.545,0.867 6.276,1.649 8.443,0.447 10.609,-0.755 11.392,-3.485 10.19,-5.652 8.988,-7.819 6.257,-8.601 4.091,-7.399 1.924,-6.197 1.142,-3.467 2.344,-1.3"
                   style="fill:#f2d7d2;fill-opacity:1;fill-rule:nonzero;stroke:none"
                   id="path18941" />
              </g>
              <g
                 transform="translate(367.7861,376.6843)"
                 id="g18947">
                <path
                   d="m 0,0 c -1.92,-3.461 -0.67,-7.823 2.791,-9.743 3.461,-1.92 7.823,-0.67 9.742,2.791 1.92,3.461 0.671,7.823 -2.79,9.743 C 6.282,4.711 1.92,3.461 0,0 M 2.344,-1.3 C 3.545,0.867 6.276,1.649 8.443,0.447 10.609,-0.755 11.392,-3.485 10.19,-5.652 8.988,-7.819 6.257,-8.601 4.091,-7.399 1.924,-6.197 1.142,-3.467 2.344,-1.3"
                   style="fill:#f2d5d1;fill-opacity:1;fill-rule:nonzero;stroke:none"
                   id="path18945" />
              </g>
              <g
                 transform="translate(367.7982,376.6969)"
                 id="g18951">
                <path
                   d="m 0,0 c -1.92,-3.461 -0.67,-7.823 2.791,-9.743 3.461,-1.92 7.823,-0.67 9.742,2.791 1.92,3.461 0.671,7.823 -2.79,9.743 C 6.282,4.711 1.92,3.461 0,0 M 2.344,-1.3 C 3.545,0.867 6.276,1.649 8.443,0.447 10.609,-0.755 11.392,-3.485 10.19,-5.652 8.988,-7.819 6.257,-8.601 4.091,-7.399 1.924,-6.197 1.142,-3.467 2.344,-1.3"
                   style="fill:#f1d4cf;fill-opacity:1;fill-rule:nonzero;stroke:none"
                   id="path18949" />
              </g>
              <g
                 transform="translate(367.8102,376.7095)"
                 id="g18955">
                <path
                   d="m 0,0 c -1.92,-3.461 -0.67,-7.823 2.791,-9.743 3.461,-1.92 7.823,-0.67 9.742,2.791 1.92,3.461 0.671,7.823 -2.79,9.743 C 6.282,4.711 1.92,3.461 0,0 M 2.344,-1.3 C 3.545,0.867 6.276,1.649 8.443,0.447 10.609,-0.755 11.392,-3.485 10.19,-5.652 8.988,-7.819 6.257,-8.601 4.091,-7.399 1.924,-6.197 1.142,-3.467 2.344,-1.3"
                   style="fill:#f1d2ce;fill-opacity:1;fill-rule:nonzero;stroke:none"
                   id="path18953" />
              </g>
              <g
                 transform="translate(367.8222,376.7221)"
                 id="g18959">
                <path
                   d="m 0,0 c -1.92,-3.461 -0.67,-7.823 2.791,-9.743 3.461,-1.92 7.823,-0.67 9.743,2.791 1.919,3.461 0.67,7.823 -2.791,9.743 C 6.282,4.711 1.92,3.461 0,0 M 2.344,-1.3 C 3.545,0.867 6.276,1.649 8.443,0.447 10.609,-0.755 11.392,-3.485 10.19,-5.652 8.988,-7.819 6.257,-8.601 4.091,-7.399 1.924,-6.197 1.142,-3.467 2.344,-1.3"
                   style="fill:#f1d1cd;fill-opacity:1;fill-rule:nonzero;stroke:none"
                   id="path18957" />
              </g>
              <g
                 transform="translate(367.8343,376.7347)"
                 id="g18963">
                <path
                   d="m 0,0 c -1.92,-3.461 -0.67,-7.823 2.791,-9.743 3.461,-1.92 7.823,-0.67 9.742,2.791 1.92,3.461 0.671,7.823 -2.79,9.743 C 6.282,4.711 1.92,3.461 0,0 M 2.344,-1.3 C 3.545,0.867 6.276,1.649 8.443,0.447 10.609,-0.755 11.392,-3.485 10.19,-5.652 8.988,-7.819 6.257,-8.601 4.091,-7.399 1.924,-6.197 1.142,-3.467 2.344,-1.3"
                   style="fill:#f0d0cb;fill-opacity:1;fill-rule:nonzero;stroke:none"
                   id="path18961" />
              </g>
              <g
                 transform="translate(367.8463,376.7473)"
                 id="g18967">
                <path
                   d="m 0,0 c -1.92,-3.461 -0.67,-7.823 2.791,-9.743 3.461,-1.92 7.823,-0.67 9.742,2.791 1.92,3.461 0.671,7.823 -2.79,9.743 C 6.282,4.711 1.92,3.461 0,0 M 2.344,-1.3 C 3.545,0.867 6.276,1.649 8.443,0.447 10.609,-0.755 11.392,-3.485 10.19,-5.652 8.988,-7.819 6.257,-8.601 4.091,-7.399 1.924,-6.197 1.142,-3.467 2.344,-1.3"
                   style="fill:#f0ceca;fill-opacity:1;fill-rule:nonzero;stroke:none"
                   id="path18965" />
              </g>
              <g
                 transform="translate(367.8583,376.7599)"
                 id="g18971">
                <path
                   d="m 0,0 c -1.92,-3.461 -0.67,-7.823 2.791,-9.743 3.461,-1.92 7.823,-0.67 9.742,2.791 1.92,3.461 0.671,7.823 -2.79,9.743 C 6.282,4.711 1.92,3.461 0,0 M 2.344,-1.3 C 3.545,0.867 6.276,1.649 8.443,0.447 10.609,-0.755 11.392,-3.485 10.19,-5.652 8.988,-7.819 6.257,-8.601 4.091,-7.399 1.924,-6.197 1.142,-3.467 2.344,-1.3"
                   style="fill:#efcdc8;fill-opacity:1;fill-rule:nonzero;stroke:none"
                   id="path18969" />
              </g>
              <g
                 transform="translate(367.8704,376.7726)"
                 id="g18975">
                <path
                   d="m 0,0 c -1.92,-3.461 -0.67,-7.823 2.791,-9.743 3.461,-1.92 7.823,-0.67 9.742,2.791 1.92,3.461 0.671,7.823 -2.79,9.743 C 6.282,4.711 1.92,3.461 0,0 M 2.344,-1.3 C 3.545,0.867 6.276,1.649 8.443,0.447 10.609,-0.755 11.392,-3.485 10.19,-5.652 8.988,-7.819 6.257,-8.601 4.091,-7.399 1.924,-6.197 1.142,-3.467 2.344,-1.3"
                   style="fill:#efccc7;fill-opacity:1;fill-rule:nonzero;stroke:none"
                   id="path18973" />
              </g>
              <g
                 transform="translate(367.8824,376.7852)"
                 id="g18979">
                <path
                   d="m 0,0 c -1.92,-3.461 -0.67,-7.823 2.791,-9.743 3.461,-1.92 7.823,-0.67 9.743,2.791 1.919,3.461 0.67,7.823 -2.791,9.743 C 6.282,4.711 1.92,3.461 0,0 M 2.344,-1.3 C 3.546,0.867 6.276,1.649 8.443,0.447 10.609,-0.755 11.392,-3.485 10.19,-5.652 8.988,-7.819 6.257,-8.601 4.091,-7.399 1.924,-6.197 1.142,-3.467 2.344,-1.3"
                   style="fill:#eecac5;fill-opacity:1;fill-rule:nonzero;stroke:none"
                   id="path18977" />
              </g>
              <g
                 transform="translate(367.8944,376.7978)"
                 id="g18983">
                <path
                   d="m 0,0 c -1.92,-3.461 -0.67,-7.823 2.791,-9.743 3.461,-1.92 7.823,-0.67 9.742,2.791 1.92,3.461 0.671,7.823 -2.79,9.743 C 6.282,4.711 1.92,3.461 0,0 M 2.344,-1.3 C 3.545,0.867 6.276,1.649 8.443,0.447 10.609,-0.755 11.392,-3.485 10.19,-5.652 8.988,-7.819 6.257,-8.601 4.091,-7.399 1.924,-6.197 1.142,-3.467 2.344,-1.3"
                   style="fill:#eec9c4;fill-opacity:1;fill-rule:nonzero;stroke:none"
                   id="path18981" />
              </g>
              <g
                 transform="translate(367.9065,376.8104)"
                 id="g18987">
                <path
                   d="m 0,0 c -1.92,-3.461 -0.67,-7.823 2.791,-9.743 3.461,-1.92 7.823,-0.67 9.742,2.791 1.92,3.461 0.671,7.823 -2.79,9.743 C 6.282,4.711 1.92,3.461 0,0 M 2.344,-1.3 C 3.545,0.867 6.276,1.649 8.443,0.447 10.609,-0.755 11.392,-3.485 10.19,-5.652 8.988,-7.819 6.257,-8.601 4.091,-7.399 1.924,-6.197 1.142,-3.467 2.344,-1.3"
                   style="fill:#eec8c2;fill-opacity:1;fill-rule:nonzero;stroke:none"
                   id="path18985" />
              </g>
              <g
                 transform="translate(367.9185,376.823)"
                 id="g18991">
                <path
                   d="m 0,0 c -1.92,-3.461 -0.67,-7.823 2.791,-9.743 3.461,-1.92 7.823,-0.67 9.742,2.791 1.92,3.461 0.671,7.823 -2.79,9.743 C 6.282,4.711 1.92,3.461 0,0 M 2.344,-1.3 C 3.545,0.867 6.276,1.649 8.443,0.447 10.609,-0.755 11.392,-3.485 10.19,-5.652 8.988,-7.819 6.257,-8.601 4.091,-7.399 1.924,-6.197 1.142,-3.467 2.344,-1.3"
                   style="fill:#edc6c1;fill-opacity:1;fill-rule:nonzero;stroke:none"
                   id="path18989" />
              </g>
              <g
                 transform="translate(367.9305,376.8357)"
                 id="g18995">
                <path
                   d="m 0,0 c -1.92,-3.461 -0.67,-7.823 2.791,-9.743 3.461,-1.92 7.823,-0.67 9.742,2.791 1.92,3.461 0.671,7.823 -2.79,9.743 C 6.282,4.711 1.92,3.461 0,0 M 2.344,-1.3 C 3.545,0.867 6.276,1.649 8.443,0.447 10.609,-0.755 11.392,-3.485 10.19,-5.652 8.988,-7.819 6.257,-8.601 4.091,-7.399 1.924,-6.197 1.142,-3.467 2.344,-1.3"
                   style="fill:#edc5bf;fill-opacity:1;fill-rule:nonzero;stroke:none"
                   id="path18993" />
              </g>
              <g
                 transform="translate(367.9426,376.8483)"
                 id="g18999">
                <path
                   d="m 0,0 c -1.92,-3.461 -0.67,-7.823 2.791,-9.743 3.461,-1.92 7.823,-0.67 9.743,2.791 1.919,3.461 0.67,7.823 -2.791,9.743 C 6.282,4.711 1.92,3.461 0,0 M 2.344,-1.3 C 3.546,0.867 6.276,1.649 8.443,0.447 10.609,-0.755 11.392,-3.485 10.19,-5.652 8.988,-7.819 6.257,-8.601 4.091,-7.399 1.924,-6.197 1.142,-3.467 2.344,-1.3"
                   style="fill:#ecc4be;fill-opacity:1;fill-rule:nonzero;stroke:none"
                   id="path18997" />
              </g>
              <g
                 transform="translate(367.9546,376.8609)"
                 id="g19003">
                <path
                   d="m 0,0 c -1.92,-3.461 -0.67,-7.823 2.791,-9.743 3.461,-1.92 7.823,-0.67 9.742,2.791 1.92,3.461 0.671,7.823 -2.79,9.743 C 6.282,4.711 1.92,3.461 0,0 M 2.344,-1.3 C 3.545,0.867 6.276,1.649 8.443,0.447 10.609,-0.755 11.392,-3.485 10.19,-5.652 8.988,-7.819 6.257,-8.601 4.091,-7.399 1.924,-6.197 1.142,-3.467 2.344,-1.3"
                   style="fill:#ecc2bc;fill-opacity:1;fill-rule:nonzero;stroke:none"
                   id="path19001" />
              </g>
              <g
                 transform="translate(367.9666,376.8735)"
                 id="g19007">
                <path
                   d="m 0,0 c -1.92,-3.461 -0.67,-7.823 2.791,-9.743 3.461,-1.92 7.823,-0.67 9.742,2.791 1.92,3.461 0.671,7.823 -2.79,9.743 C 6.282,4.711 1.92,3.461 0,0 M 2.344,-1.3 C 3.546,0.867 6.276,1.649 8.443,0.447 10.609,-0.755 11.392,-3.485 10.19,-5.652 8.988,-7.819 6.257,-8.601 4.091,-7.399 1.924,-6.197 1.142,-3.467 2.344,-1.3"
                   style="fill:#ebc1bb;fill-opacity:1;fill-rule:nonzero;stroke:none"
                   id="path19005" />
              </g>
              <g
                 transform="translate(367.9787,376.8861)"
                 id="g19011">
                <path
                   d="m 0,0 c -1.92,-3.461 -0.67,-7.823 2.791,-9.743 3.461,-1.92 7.823,-0.67 9.742,2.791 1.92,3.461 0.671,7.823 -2.79,9.743 C 6.282,4.711 1.92,3.461 0,0 M 2.344,-1.3 C 3.545,0.867 6.276,1.649 8.443,0.447 10.609,-0.755 11.392,-3.485 10.19,-5.652 8.988,-7.819 6.257,-8.601 4.091,-7.399 1.924,-6.197 1.142,-3.467 2.344,-1.3"
                   style="fill:#ebc0b9;fill-opacity:1;fill-rule:nonzero;stroke:none"
                   id="path19009" />
              </g>
              <g
                 transform="translate(367.9907,376.8987)"
                 id="g19015">
                <path
                   d="m 0,0 c -1.92,-3.461 -0.67,-7.823 2.791,-9.743 3.461,-1.92 7.823,-0.67 9.742,2.791 1.92,3.461 0.671,7.823 -2.79,9.743 C 6.282,4.711 1.92,3.461 0,0 M 2.344,-1.3 C 3.545,0.867 6.276,1.649 8.443,0.447 10.609,-0.755 11.392,-3.485 10.19,-5.652 8.988,-7.819 6.257,-8.601 4.091,-7.399 1.924,-6.197 1.142,-3.467 2.344,-1.3"
                   style="fill:#ebbeb8;fill-opacity:1;fill-rule:nonzero;stroke:none"
                   id="path19013" />
              </g>
              <g
                 transform="translate(368.0027,376.9113)"
                 id="g19019">
                <path
                   d="m 0,0 c -1.92,-3.461 -0.67,-7.823 2.791,-9.743 3.461,-1.92 7.823,-0.67 9.742,2.791 1.92,3.461 0.671,7.823 -2.79,9.743 C 6.282,4.711 1.92,3.461 0,0 M 2.344,-1.3 C 3.546,0.867 6.276,1.649 8.443,0.447 10.609,-0.755 11.392,-3.485 10.19,-5.652 8.988,-7.819 6.257,-8.601 4.091,-7.399 1.924,-6.197 1.142,-3.467 2.344,-1.3"
                   style="fill:#eabdb6;fill-opacity:1;fill-rule:nonzero;stroke:none"
                   id="path19017" />
              </g>
              <g
                 transform="translate(368.0148,376.924)"
                 id="g19023">
                <path
                   d="m 0,0 c -1.92,-3.461 -0.67,-7.823 2.791,-9.743 3.461,-1.92 7.823,-0.67 9.742,2.791 1.92,3.461 0.671,7.823 -2.79,9.743 C 6.282,4.711 1.92,3.461 0,0 M 2.344,-1.3 C 3.545,0.867 6.276,1.649 8.443,0.447 10.609,-0.755 11.392,-3.485 10.19,-5.652 8.988,-7.819 6.257,-8.601 4.091,-7.399 1.924,-6.197 1.142,-3.467 2.344,-1.3"
                   style="fill:#eabcb5;fill-opacity:1;fill-rule:nonzero;stroke:none"
                   id="path19021" />
              </g>
              <g
                 transform="translate(368.0268,376.9366)"
                 id="g19027">
                <path
                   d="m 0,0 c -1.92,-3.461 -0.67,-7.823 2.791,-9.743 3.461,-1.92 7.823,-0.67 9.742,2.791 1.92,3.461 0.671,7.823 -2.79,9.743 C 6.282,4.711 1.92,3.461 0,0 M 2.344,-1.3 C 3.546,0.867 6.276,1.649 8.443,0.447 10.609,-0.755 11.392,-3.485 10.19,-5.652 8.988,-7.819 6.257,-8.601 4.091,-7.399 1.924,-6.197 1.142,-3.467 2.344,-1.3"
                   style="fill:#e9bab3;fill-opacity:1;fill-rule:nonzero;stroke:none"
                   id="path19025" />
              </g>
              <g
                 transform="translate(368.0389,376.9492)"
                 id="g19031">
                <path
                   d="m 0,0 c -1.92,-3.461 -0.67,-7.823 2.791,-9.743 3.461,-1.92 7.823,-0.67 9.742,2.791 1.92,3.461 0.671,7.823 -2.79,9.743 C 6.282,4.711 1.92,3.461 0,0 M 2.344,-1.3 C 3.545,0.867 6.276,1.649 8.443,0.447 10.609,-0.755 11.392,-3.485 10.19,-5.652 8.988,-7.819 6.257,-8.601 4.091,-7.399 1.924,-6.197 1.142,-3.467 2.344,-1.3"
                   style="fill:#e9b9b2;fill-opacity:1;fill-rule:nonzero;stroke:none"
                   id="path19029" />
              </g>
              <g
                 transform="translate(368.0509,376.9618)"
                 id="g19035">
                <path
                   d="m 0,0 c -1.92,-3.461 -0.67,-7.823 2.791,-9.743 3.461,-1.92 7.823,-0.67 9.742,2.791 1.92,3.461 0.671,7.823 -2.79,9.743 C 6.282,4.711 1.92,3.461 0,0 M 2.344,-1.3 C 3.545,0.867 6.276,1.649 8.443,0.447 10.609,-0.755 11.392,-3.485 10.19,-5.652 8.988,-7.819 6.257,-8.601 4.091,-7.399 1.924,-6.197 1.142,-3.467 2.344,-1.3"
                   style="fill:#e9b8b0;fill-opacity:1;fill-rule:nonzero;stroke:none"
                   id="path19033" />
              </g>
              <g
                 transform="translate(368.0629,376.9744)"
                 id="g19039">
                <path
                   d="m 0,0 c -1.92,-3.461 -0.67,-7.823 2.791,-9.743 3.461,-1.92 7.823,-0.67 9.742,2.791 1.92,3.461 0.671,7.823 -2.79,9.743 C 6.282,4.711 1.92,3.461 0,0 M 2.344,-1.3 C 3.546,0.867 6.276,1.649 8.443,0.447 10.609,-0.755 11.392,-3.485 10.19,-5.652 8.988,-7.819 6.257,-8.601 4.091,-7.399 1.924,-6.197 1.142,-3.467 2.344,-1.3"
                   style="fill:#e8b6af;fill-opacity:1;fill-rule:nonzero;stroke:none"
                   id="path19037" />
              </g>
              <g
                 transform="translate(368.075,376.987)"
                 id="g19043">
                <path
                   d="m 0,0 c -1.92,-3.461 -0.67,-7.823 2.791,-9.743 3.461,-1.92 7.823,-0.67 9.742,2.791 1.92,3.461 0.671,7.823 -2.79,9.743 C 6.282,4.711 1.92,3.461 0,0 M 2.344,-1.3 C 3.545,0.867 6.276,1.649 8.443,0.447 10.609,-0.755 11.392,-3.485 10.19,-5.652 8.988,-7.819 6.257,-8.601 4.091,-7.399 1.924,-6.197 1.142,-3.467 2.344,-1.3"
                   style="fill:#e8b5ad;fill-opacity:1;fill-rule:nonzero;stroke:none"
                   id="path19041" />
              </g>
              <g
                 transform="translate(368.087,376.9996)"
                 id="g19047">
                <path
                   d="m 0,0 c -1.92,-3.461 -0.67,-7.823 2.791,-9.743 3.461,-1.92 7.823,-0.67 9.742,2.791 1.92,3.461 0.671,7.823 -2.79,9.743 C 6.282,4.711 1.92,3.461 0,0 M 2.344,-1.3 C 3.546,0.867 6.276,1.649 8.443,0.447 10.609,-0.755 11.392,-3.485 10.19,-5.652 8.988,-7.819 6.257,-8.601 4.091,-7.399 1.924,-6.197 1.142,-3.467 2.344,-1.3"
                   style="fill:#e7b3ac;fill-opacity:1;fill-rule:nonzero;stroke:none"
                   id="path19045" />
              </g>
              <g
                 transform="translate(368.0991,377.0123)"
                 id="g19051">
                <path
                   d="m 0,0 c -1.92,-3.461 -0.67,-7.823 2.791,-9.743 3.461,-1.92 7.823,-0.67 9.742,2.791 1.92,3.461 0.671,7.823 -2.79,9.743 C 6.282,4.711 1.92,3.461 0,0 M 2.344,-1.3 C 3.545,0.867 6.276,1.649 8.443,0.447 10.609,-0.755 11.392,-3.485 10.19,-5.652 8.988,-7.819 6.257,-8.601 4.091,-7.399 1.924,-6.197 1.142,-3.467 2.344,-1.3"
                   style="fill:#e7b2aa;fill-opacity:1;fill-rule:nonzero;stroke:none"
                   id="path19049" />
              </g>
              <g
                 transform="translate(368.1111,377.0249)"
                 id="g19055">
                <path
                   d="m 0,0 c -1.92,-3.461 -0.67,-7.823 2.791,-9.743 3.461,-1.92 7.823,-0.67 9.742,2.791 1.92,3.461 0.671,7.823 -2.79,9.743 C 6.282,4.711 1.92,3.461 0,0 M 2.344,-1.3 C 3.546,0.867 6.276,1.649 8.443,0.447 10.609,-0.755 11.392,-3.485 10.19,-5.652 8.988,-7.819 6.257,-8.601 4.091,-7.399 1.924,-6.197 1.142,-3.467 2.344,-1.3"
                   style="fill:#e6b1a9;fill-opacity:1;fill-rule:nonzero;stroke:none"
                   id="path19053" />
              </g>
              <g
                 transform="translate(368.1231,377.0375)"
                 id="g19059">
                <path
                   d="m 0,0 c -1.92,-3.461 -0.67,-7.823 2.791,-9.743 3.461,-1.92 7.823,-0.67 9.742,2.791 1.92,3.461 0.671,7.823 -2.79,9.743 C 6.282,4.711 1.92,3.461 0,0 M 2.344,-1.3 C 3.546,0.867 6.276,1.649 8.443,0.447 10.609,-0.755 11.392,-3.485 10.19,-5.652 8.988,-7.819 6.257,-8.601 4.091,-7.399 1.924,-6.197 1.142,-3.467 2.344,-1.3"
                   style="fill:#e6afa7;fill-opacity:1;fill-rule:nonzero;stroke:none"
                   id="path19057" />
              </g>
              <g
                 transform="translate(368.1352,377.0501)"
                 id="g19063">
                <path
                   d="m 0,0 c -1.92,-3.461 -0.67,-7.823 2.791,-9.743 3.461,-1.92 7.823,-0.67 9.742,2.791 1.92,3.461 0.671,7.823 -2.79,9.743 C 6.282,4.711 1.92,3.461 0,0 M 2.344,-1.3 C 3.545,0.867 6.276,1.649 8.443,0.447 10.609,-0.755 11.392,-3.485 10.19,-5.652 8.988,-7.819 6.257,-8.601 4.091,-7.399 1.924,-6.197 1.142,-3.467 2.344,-1.3"
                   style="fill:#e6aea6;fill-opacity:1;fill-rule:nonzero;stroke:none"
                   id="path19061" />
              </g>
              <g
                 transform="translate(368.1472,377.0627)"
                 id="g19067">
                <path
                   d="m 0,0 c -1.92,-3.461 -0.67,-7.823 2.791,-9.743 3.461,-1.92 7.823,-0.67 9.742,2.791 1.92,3.461 0.671,7.823 -2.79,9.743 C 6.282,4.711 1.92,3.461 0,0 M 2.344,-1.3 C 3.546,0.867 6.276,1.649 8.443,0.447 10.609,-0.755 11.392,-3.485 10.19,-5.652 8.988,-7.819 6.257,-8.601 4.091,-7.399 1.924,-6.197 1.142,-3.467 2.344,-1.3"
                   style="fill:#e5ada4;fill-opacity:1;fill-rule:nonzero;stroke:none"
                   id="path19065" />
              </g>
              <g
                 transform="translate(368.1592,377.0753)"
                 id="g19071">
                <path
                   d="m 0,0 c -1.92,-3.461 -0.67,-7.823 2.791,-9.743 3.461,-1.92 7.823,-0.67 9.742,2.791 1.92,3.461 0.671,7.823 -2.79,9.743 C 6.282,4.711 1.92,3.461 0,0 M 2.344,-1.3 C 3.545,0.867 6.276,1.649 8.443,0.447 10.609,-0.755 11.392,-3.485 10.19,-5.652 8.988,-7.819 6.257,-8.601 4.091,-7.399 1.924,-6.197 1.142,-3.467 2.344,-1.3"
                   style="fill:#e5aba3;fill-opacity:1;fill-rule:nonzero;stroke:none"
                   id="path19069" />
              </g>
              <g
                 transform="translate(368.1713,377.088)"
                 id="g19075">
                <path
                   d="m 0,0 c -1.92,-3.461 -0.67,-7.823 2.791,-9.743 3.461,-1.92 7.823,-0.67 9.742,2.791 1.92,3.461 0.671,7.823 -2.79,9.743 C 6.282,4.711 1.92,3.461 0,0 M 2.344,-1.3 C 3.546,0.867 6.276,1.649 8.443,0.447 10.609,-0.755 11.392,-3.485 10.19,-5.652 8.988,-7.819 6.257,-8.601 4.091,-7.399 1.924,-6.197 1.142,-3.467 2.344,-1.3"
                   style="fill:#e4aaa1;fill-opacity:1;fill-rule:nonzero;stroke:none"
                   id="path19073" />
              </g>
              <g
                 transform="translate(368.1833,377.1006)"
                 id="g19079">
                <path
                   d="m 0,0 c -1.92,-3.461 -0.67,-7.823 2.791,-9.743 3.461,-1.92 7.823,-0.67 9.742,2.791 1.92,3.461 0.671,7.823 -2.79,9.743 C 6.282,4.711 1.92,3.461 0,0 M 2.344,-1.3 C 3.546,0.867 6.276,1.649 8.443,0.447 10.609,-0.755 11.392,-3.485 10.19,-5.652 8.988,-7.819 6.257,-8.601 4.091,-7.399 1.924,-6.197 1.142,-3.467 2.344,-1.3"
                   style="fill:#e4a9a0;fill-opacity:1;fill-rule:nonzero;stroke:none"
                   id="path19077" />
              </g>
              <g
                 transform="translate(368.1953,377.1132)"
                 id="g19083">
                <path
                   d="m 0,0 c -1.92,-3.461 -0.67,-7.823 2.791,-9.743 3.461,-1.92 7.823,-0.67 9.742,2.791 1.92,3.461 0.671,7.823 -2.79,9.743 C 6.282,4.711 1.92,3.461 0,0 M 2.344,-1.3 C 3.546,0.867 6.276,1.649 8.443,0.447 10.609,-0.755 11.392,-3.485 10.19,-5.652 8.988,-7.819 6.257,-8.601 4.091,-7.399 1.924,-6.197 1.142,-3.467 2.344,-1.3"
                   style="fill:#e3a79e;fill-opacity:1;fill-rule:nonzero;stroke:none"
                   id="path19081" />
              </g>
              <g
                 transform="translate(368.2074,377.1258)"
                 id="g19087">
                <path
                   d="m 0,0 c -1.92,-3.461 -0.67,-7.823 2.791,-9.743 3.461,-1.92 7.823,-0.67 9.742,2.791 1.92,3.461 0.671,7.823 -2.79,9.743 C 6.282,4.711 1.92,3.461 0,0 M 2.344,-1.3 C 3.546,0.867 6.276,1.649 8.443,0.447 10.609,-0.755 11.392,-3.485 10.19,-5.652 8.988,-7.819 6.257,-8.601 4.091,-7.399 1.924,-6.197 1.142,-3.467 2.344,-1.3"
                   style="fill:#e3a69d;fill-opacity:1;fill-rule:nonzero;stroke:none"
                   id="path19085" />
              </g>
              <g
                 transform="translate(368.2194,377.1384)"
                 id="g19091">
                <path
                   d="m 0,0 c -1.92,-3.461 -0.67,-7.823 2.791,-9.743 3.461,-1.92 7.823,-0.67 9.742,2.791 1.92,3.461 0.671,7.823 -2.79,9.743 C 6.282,4.711 1.92,3.461 0,0 M 2.344,-1.3 C 3.545,0.867 6.276,1.649 8.443,0.447 10.609,-0.755 11.392,-3.485 10.19,-5.652 8.988,-7.819 6.257,-8.601 4.091,-7.399 1.924,-6.197 1.142,-3.467 2.344,-1.3"
                   style="fill:#e3a59c;fill-opacity:1;fill-rule:nonzero;stroke:none"
                   id="path19089" />
              </g>
              <g
                 transform="translate(368.2314,377.151)"
                 id="g19095">
                <path
                   d="m 0,0 c -1.92,-3.461 -0.67,-7.823 2.791,-9.743 3.461,-1.92 7.823,-0.67 9.742,2.791 1.92,3.461 0.671,7.823 -2.79,9.743 C 6.282,4.711 1.92,3.461 0,0 M 2.344,-1.3 C 3.546,0.867 6.276,1.649 8.443,0.447 10.609,-0.755 11.392,-3.485 10.19,-5.652 8.988,-7.819 6.257,-8.601 4.091,-7.399 1.924,-6.197 1.142,-3.467 2.344,-1.3"
                   style="fill:#e2a39a;fill-opacity:1;fill-rule:nonzero;stroke:none"
                   id="path19093" />
              </g>
              <g
                 transform="translate(368.2435,377.1636)"
                 id="g19099">
                <path
                   d="m 0,0 c -1.92,-3.461 -0.67,-7.823 2.791,-9.743 3.461,-1.92 7.823,-0.67 9.742,2.791 1.92,3.461 0.671,7.823 -2.79,9.743 C 6.282,4.711 1.92,3.461 0,0 M 2.344,-1.3 C 3.546,0.867 6.276,1.649 8.443,0.447 10.609,-0.755 11.392,-3.485 10.19,-5.652 8.988,-7.819 6.257,-8.601 4.091,-7.399 1.924,-6.197 1.142,-3.467 2.344,-1.3"
                   style="fill:#e2a299;fill-opacity:1;fill-rule:nonzero;stroke:none"
                   id="path19097" />
              </g>
              <g
                 transform="translate(368.2555,377.1763)"
                 id="g19103">
                <path
                   d="m 0,0 c -1.92,-3.461 -0.67,-7.823 2.791,-9.743 3.461,-1.92 7.823,-0.67 9.742,2.791 1.92,3.461 0.671,7.823 -2.79,9.743 C 6.282,4.711 1.92,3.461 0,0 M 2.344,-1.3 C 3.546,0.867 6.276,1.649 8.443,0.447 10.609,-0.755 11.392,-3.485 10.19,-5.652 8.988,-7.819 6.257,-8.601 4.091,-7.399 1.924,-6.197 1.142,-3.467 2.344,-1.3"
                   style="fill:#e1a197;fill-opacity:1;fill-rule:nonzero;stroke:none"
                   id="path19101" />
              </g>
              <g
                 transform="translate(368.2675,377.1889)"
                 id="g19107">
                <path
                   d="m 0,0 c -1.92,-3.461 -0.67,-7.823 2.791,-9.743 3.461,-1.92 7.823,-0.67 9.742,2.791 1.92,3.461 0.671,7.823 -2.79,9.743 C 6.282,4.711 1.92,3.461 0,0 M 2.344,-1.3 C 3.546,0.867 6.276,1.649 8.443,0.447 10.609,-0.755 11.392,-3.485 10.19,-5.652 8.988,-7.819 6.257,-8.601 4.091,-7.399 1.924,-6.197 1.142,-3.467 2.344,-1.3"
                   style="fill:#e19f96;fill-opacity:1;fill-rule:nonzero;stroke:none"
                   id="path19105" />
              </g>
              <g
                 transform="translate(368.2796,377.2015)"
                 id="g19111">
                <path
                   d="m 0,0 c -1.92,-3.461 -0.67,-7.823 2.791,-9.743 3.461,-1.92 7.823,-0.67 9.743,2.791 1.919,3.461 0.67,7.823 -2.791,9.743 C 6.282,4.711 1.92,3.461 0,0 M 2.344,-1.3 C 3.546,0.867 6.276,1.649 8.443,0.447 10.609,-0.755 11.392,-3.485 10.19,-5.652 8.988,-7.819 6.257,-8.601 4.091,-7.399 1.924,-6.197 1.142,-3.467 2.344,-1.3"
                   style="fill:#e09e94;fill-opacity:1;fill-rule:nonzero;stroke:none"
                   id="path19109" />
              </g>
              <g
                 transform="translate(368.2916,377.2141)"
                 id="g19115">
                <path
                   d="m 0,0 c -1.92,-3.461 -0.67,-7.823 2.791,-9.743 3.461,-1.92 7.823,-0.67 9.742,2.791 1.92,3.461 0.671,7.823 -2.79,9.743 C 6.282,4.711 1.92,3.461 0,0 M 2.344,-1.3 C 3.546,0.867 6.276,1.649 8.443,0.447 10.609,-0.755 11.392,-3.485 10.19,-5.652 8.988,-7.819 6.257,-8.601 4.091,-7.399 1.924,-6.197 1.142,-3.467 2.344,-1.3"
                   style="fill:#e09d93;fill-opacity:1;fill-rule:nonzero;stroke:none"
                   id="path19113" />
              </g>
              <g
                 transform="translate(368.3036,377.2267)"
                 id="g19119">
                <path
                   d="m 0,0 c -1.92,-3.461 -0.67,-7.823 2.791,-9.743 3.461,-1.92 7.823,-0.67 9.742,2.791 1.92,3.461 0.671,7.823 -2.79,9.743 C 6.282,4.711 1.92,3.461 0,0 M 2.344,-1.3 C 3.546,0.867 6.276,1.649 8.443,0.447 10.609,-0.755 11.392,-3.485 10.19,-5.652 8.988,-7.819 6.257,-8.601 4.091,-7.399 1.924,-6.197 1.142,-3.467 2.344,-1.3"
                   style="fill:#e09b91;fill-opacity:1;fill-rule:nonzero;stroke:none"
                   id="path19117" />
              </g>
              <g
                 transform="translate(368.3157,377.2393)"
                 id="g19123">
                <path
                   d="m 0,0 c -1.92,-3.461 -0.67,-7.823 2.791,-9.743 3.461,-1.92 7.823,-0.67 9.742,2.791 1.92,3.461 0.671,7.823 -2.79,9.743 C 6.282,4.711 1.92,3.461 0,0 M 2.344,-1.3 C 3.546,0.867 6.276,1.649 8.443,0.447 10.609,-0.755 11.392,-3.485 10.19,-5.652 8.988,-7.819 6.257,-8.601 4.091,-7.399 1.924,-6.197 1.142,-3.467 2.344,-1.3"
                   style="fill:#df9a90;fill-opacity:1;fill-rule:nonzero;stroke:none"
                   id="path19121" />
              </g>
              <g
                 transform="translate(368.3277,377.252)"
                 id="g19127">
                <path
                   d="m 0,0 c -1.92,-3.461 -0.67,-7.823 2.791,-9.743 3.461,-1.92 7.823,-0.67 9.742,2.791 1.92,3.461 0.671,7.823 -2.79,9.743 C 6.282,4.711 1.92,3.461 0,0 M 2.344,-1.3 C 3.546,0.867 6.276,1.649 8.443,0.447 10.609,-0.755 11.392,-3.485 10.19,-5.652 8.988,-7.819 6.257,-8.601 4.091,-7.399 1.924,-6.197 1.142,-3.467 2.344,-1.3"
                   style="fill:#df998e;fill-opacity:1;fill-rule:nonzero;stroke:none"
                   id="path19125" />
              </g>
              <g
                 transform="translate(368.3398,377.2646)"
                 id="g19131">
                <path
                   d="m 0,0 c -1.92,-3.461 -0.67,-7.823 2.791,-9.743 3.461,-1.92 7.823,-0.67 9.743,2.791 1.919,3.461 0.67,7.823 -2.791,9.743 C 6.282,4.711 1.92,3.461 0,0 M 2.344,-1.3 C 3.546,0.867 6.276,1.649 8.443,0.447 10.609,-0.755 11.392,-3.485 10.19,-5.652 8.988,-7.819 6.257,-8.601 4.091,-7.399 1.924,-6.197 1.142,-3.467 2.344,-1.3"
                   style="fill:#de978d;fill-opacity:1;fill-rule:nonzero;stroke:none"
                   id="path19129" />
              </g>
              <g
                 transform="translate(368.3518,377.2772)"
                 id="g19135">
                <path
                   d="m 0,0 c -1.92,-3.461 -0.67,-7.823 2.791,-9.743 3.461,-1.92 7.823,-0.67 9.742,2.791 1.92,3.461 0.671,7.823 -2.79,9.743 C 6.282,4.711 1.92,3.461 0,0 M 2.344,-1.3 C 3.546,0.867 6.276,1.649 8.443,0.447 10.609,-0.755 11.392,-3.485 10.19,-5.652 8.988,-7.819 6.257,-8.601 4.091,-7.399 1.924,-6.197 1.142,-3.467 2.344,-1.3"
                   style="fill:#de968b;fill-opacity:1;fill-rule:nonzero;stroke:none"
                   id="path19133" />
              </g>
              <g
                 transform="translate(368.3638,377.2898)"
                 id="g19139">
                <path
                   d="m 0,0 c -1.92,-3.461 -0.67,-7.823 2.791,-9.743 3.461,-1.92 7.823,-0.67 9.742,2.791 1.92,3.461 0.671,7.823 -2.79,9.743 C 6.282,4.711 1.92,3.461 0,0 M 2.344,-1.3 C 3.546,0.867 6.276,1.649 8.443,0.447 10.609,-0.755 11.392,-3.485 10.19,-5.652 8.988,-7.819 6.257,-8.601 4.091,-7.399 1.924,-6.197 1.142,-3.467 2.344,-1.3"
                   style="fill:#dd948a;fill-opacity:1;fill-rule:nonzero;stroke:none"
                   id="path19137" />
              </g>
              <g
                 transform="translate(368.3759,377.3024)"
                 id="g19143">
                <path
                   d="m 0,0 c -1.92,-3.461 -0.67,-7.823 2.791,-9.743 3.461,-1.92 7.823,-0.67 9.742,2.791 1.92,3.461 0.671,7.823 -2.79,9.743 C 6.282,4.711 1.92,3.461 0,0 M 2.344,-1.3 C 3.546,0.867 6.276,1.649 8.443,0.447 10.609,-0.755 11.392,-3.485 10.19,-5.652 8.988,-7.819 6.257,-8.601 4.091,-7.399 1.924,-6.197 1.142,-3.467 2.344,-1.3"
                   style="fill:#dd9388;fill-opacity:1;fill-rule:nonzero;stroke:none"
                   id="path19141" />
              </g>
              <g
                 transform="translate(368.3879,377.315)"
                 id="g19147">
                <path
                   d="m 0,0 c -1.92,-3.461 -0.67,-7.823 2.791,-9.743 3.461,-1.92 7.823,-0.67 9.742,2.791 1.92,3.461 0.671,7.823 -2.79,9.743 C 6.282,4.711 1.92,3.461 0,0 M 2.344,-1.3 C 3.546,0.867 6.276,1.649 8.443,0.447 10.609,-0.755 11.392,-3.485 10.19,-5.652 8.988,-7.819 6.257,-8.601 4.091,-7.399 1.924,-6.197 1.142,-3.467 2.344,-1.3"
                   style="fill:#dd9287;fill-opacity:1;fill-rule:nonzero;stroke:none"
                   id="path19145" />
              </g>
              <g
                 transform="translate(368.3999,377.3276)"
                 id="g19151">
                <path
                   d="m 0,0 c -1.92,-3.461 -0.67,-7.823 2.791,-9.743 3.461,-1.92 7.823,-0.67 9.743,2.791 1.919,3.461 0.67,7.823 -2.791,9.743 C 6.282,4.711 1.92,3.461 0,0 M 2.344,-1.3 C 3.546,0.867 6.276,1.649 8.443,0.447 10.609,-0.755 11.392,-3.485 10.19,-5.652 8.988,-7.819 6.257,-8.601 4.091,-7.399 1.924,-6.197 1.142,-3.467 2.344,-1.3"
                   style="fill:#dc9085;fill-opacity:1;fill-rule:nonzero;stroke:none"
                   id="path19149" />
              </g>
              <g
                 transform="translate(368.412,377.3403)"
                 id="g19155">
                <path
                   d="m 0,0 c -1.92,-3.461 -0.67,-7.823 2.791,-9.743 3.461,-1.92 7.823,-0.67 9.742,2.791 1.92,3.461 0.671,7.823 -2.79,9.743 C 6.282,4.711 1.92,3.461 0,0 M 2.344,-1.3 C 3.546,0.867 6.276,1.649 8.443,0.447 10.609,-0.755 11.392,-3.485 10.19,-5.652 8.988,-7.819 6.257,-8.601 4.091,-7.399 1.924,-6.197 1.142,-3.467 2.344,-1.3"
                   style="fill:#dc8f84;fill-opacity:1;fill-rule:nonzero;stroke:none"
                   id="path19153" />
              </g>
              <g
                 transform="translate(368.424,377.3529)"
                 id="g19159">
                <path
                   d="m 0,0 c -1.92,-3.461 -0.67,-7.823 2.791,-9.743 3.461,-1.92 7.823,-0.67 9.742,2.791 1.92,3.461 0.671,7.823 -2.79,9.743 C 6.282,4.711 1.92,3.461 0,0 M 2.344,-1.3 C 3.546,0.867 6.276,1.649 8.443,0.447 10.609,-0.755 11.392,-3.485 10.19,-5.652 8.988,-7.819 6.257,-8.601 4.091,-7.399 1.924,-6.197 1.142,-3.467 2.344,-1.3"
                   style="fill:#db8e82;fill-opacity:1;fill-rule:nonzero;stroke:none"
                   id="path19157" />
              </g>
              <g
                 transform="translate(368.4361,377.3655)"
                 id="g19163">
                <path
                   d="m 0,0 c -1.92,-3.461 -0.67,-7.823 2.791,-9.743 3.461,-1.92 7.823,-0.67 9.742,2.791 1.92,3.461 0.671,7.823 -2.79,9.743 C 6.282,4.711 1.92,3.461 0,0 M 2.344,-1.3 C 3.546,0.867 6.276,1.649 8.443,0.447 10.609,-0.755 11.392,-3.485 10.19,-5.652 8.988,-7.819 6.257,-8.601 4.091,-7.399 1.924,-6.197 1.142,-3.467 2.344,-1.3"
                   style="fill:#db8c81;fill-opacity:1;fill-rule:nonzero;stroke:none"
                   id="path19161" />
              </g>
              <g
                 transform="translate(368.4481,377.3781)"
                 id="g19167">
                <path
                   d="m 0,0 c -1.92,-3.461 -0.67,-7.823 2.791,-9.743 3.461,-1.92 7.823,-0.67 9.742,2.791 1.92,3.461 0.671,7.823 -2.79,9.743 C 6.282,4.711 1.92,3.461 0,0 M 2.344,-1.3 C 3.546,0.867 6.276,1.649 8.443,0.447 10.609,-0.755 11.392,-3.485 10.19,-5.652 8.988,-7.819 6.257,-8.601 4.091,-7.399 1.924,-6.197 1.142,-3.467 2.344,-1.3"
                   style="fill:#db8b7f;fill-opacity:1;fill-rule:nonzero;stroke:none"
                   id="path19165" />
              </g>
              <g
                 transform="translate(368.4601,377.3907)"
                 id="g19171">
                <path
                   d="m 0,0 c -1.92,-3.461 -0.67,-7.823 2.791,-9.743 3.461,-1.92 7.823,-0.67 9.743,2.791 1.919,3.461 0.67,7.823 -2.791,9.743 C 6.282,4.711 1.92,3.461 0,0 M 2.344,-1.3 C 3.546,0.867 6.276,1.649 8.443,0.447 10.609,-0.755 11.392,-3.485 10.19,-5.652 8.988,-7.819 6.257,-8.601 4.091,-7.399 1.924,-6.197 1.142,-3.467 2.344,-1.3"
                   style="fill:#da8a7e;fill-opacity:1;fill-rule:nonzero;stroke:none"
                   id="path19169" />
              </g>
              <g
                 transform="translate(368.4722,377.4033)"
                 id="g19175">
                <path
                   d="m 0,0 c -1.92,-3.461 -0.67,-7.823 2.791,-9.743 3.461,-1.92 7.823,-0.67 9.742,2.791 1.92,3.461 0.671,7.823 -2.79,9.743 C 6.282,4.711 1.92,3.461 0,0 M 2.344,-1.3 C 3.546,0.867 6.276,1.649 8.443,0.447 10.609,-0.755 11.392,-3.485 10.19,-5.652 8.988,-7.819 6.257,-8.601 4.091,-7.399 1.924,-6.197 1.142,-3.467 2.344,-1.3"
                   style="fill:#da887c;fill-opacity:1;fill-rule:nonzero;stroke:none"
                   id="path19173" />
              </g>
              <g
                 transform="translate(368.4842,377.416)"
                 id="g19179">
                <path
                   d="m 0,0 c -1.92,-3.461 -0.67,-7.823 2.791,-9.743 3.461,-1.92 7.823,-0.67 9.742,2.791 1.92,3.461 0.671,7.823 -2.79,9.743 C 6.282,4.711 1.92,3.461 0,0 M 2.344,-1.3 C 3.546,0.867 6.276,1.649 8.443,0.447 10.609,-0.755 11.392,-3.485 10.19,-5.652 8.988,-7.819 6.257,-8.601 4.091,-7.399 1.924,-6.197 1.142,-3.467 2.344,-1.3"
                   style="fill:#d9877b;fill-opacity:1;fill-rule:nonzero;stroke:none"
                   id="path19177" />
              </g>
              <g
                 transform="translate(368.4962,377.4286)"
                 id="g19183">
                <path
                   d="m 0,0 c -1.92,-3.461 -0.67,-7.823 2.791,-9.743 3.461,-1.92 7.823,-0.67 9.742,2.791 1.92,3.461 0.671,7.823 -2.79,9.743 C 6.282,4.711 1.92,3.461 0,0 M 2.344,-1.3 C 3.546,0.867 6.276,1.649 8.443,0.447 10.609,-0.755 11.392,-3.485 10.19,-5.652 8.988,-7.819 6.257,-8.601 4.091,-7.399 1.924,-6.197 1.142,-3.467 2.344,-1.3"
                   style="fill:#d98679;fill-opacity:1;fill-rule:nonzero;stroke:none"
                   id="path19181" />
              </g>
              <g
                 transform="translate(368.5083,377.4412)"
                 id="g19187">
                <path
                   d="m 0,0 c -1.92,-3.461 -0.67,-7.823 2.791,-9.743 3.461,-1.92 7.823,-0.67 9.742,2.791 1.92,3.461 0.671,7.823 -2.79,9.743 C 6.282,4.711 1.92,3.461 0,0 M 2.344,-1.3 C 3.546,0.867 6.276,1.649 8.443,0.447 10.609,-0.755 11.392,-3.485 10.19,-5.652 8.988,-7.819 6.257,-8.601 4.091,-7.399 1.924,-6.197 1.142,-3.467 2.344,-1.3"
                   style="fill:#d88478;fill-opacity:1;fill-rule:nonzero;stroke:none"
                   id="path19185" />
              </g>
              <g
                 transform="translate(368.5203,377.4538)"
                 id="g19191">
                <path
                   d="m 0,0 c -1.92,-3.461 -0.67,-7.823 2.791,-9.743 3.461,-1.92 7.823,-0.67 9.743,2.791 1.919,3.461 0.67,7.823 -2.791,9.743 C 6.282,4.711 1.92,3.461 0,0 M 2.344,-1.3 C 3.546,0.867 6.276,1.649 8.443,0.447 10.609,-0.755 11.392,-3.485 10.19,-5.652 8.988,-7.819 6.257,-8.601 4.091,-7.399 1.924,-6.197 1.142,-3.467 2.344,-1.3"
                   style="fill:#d88376;fill-opacity:1;fill-rule:nonzero;stroke:none"
                   id="path19189" />
              </g>
              <g
                 transform="translate(368.5323,377.4664)"
                 id="g19195">
                <path
                   d="m 0,0 c -1.92,-3.461 -0.67,-7.823 2.791,-9.743 3.461,-1.92 7.823,-0.67 9.742,2.791 1.92,3.461 0.671,7.823 -2.79,9.743 C 6.282,4.711 1.92,3.461 0,0 M 2.344,-1.3 C 3.546,0.867 6.276,1.649 8.443,0.447 10.609,-0.755 11.392,-3.485 10.19,-5.652 8.988,-7.819 6.257,-8.601 4.091,-7.399 1.924,-6.197 1.142,-3.467 2.344,-1.3"
                   style="fill:#d88275;fill-opacity:1;fill-rule:nonzero;stroke:none"
                   id="path19193" />
              </g>
              <g
                 transform="translate(368.5444,377.479)"
                 id="g19199">
                <path
                   d="m 0,0 c -1.92,-3.461 -0.67,-7.823 2.791,-9.743 3.461,-1.92 7.823,-0.67 9.742,2.791 1.92,3.461 0.671,7.823 -2.79,9.743 C 6.282,4.711 1.92,3.461 0,0 M 2.344,-1.3 C 3.546,0.867 6.276,1.649 8.443,0.447 10.609,-0.755 11.392,-3.485 10.19,-5.652 8.988,-7.819 6.257,-8.601 4.091,-7.399 1.924,-6.197 1.142,-3.467 2.344,-1.3"
                   style="fill:#d78073;fill-opacity:1;fill-rule:nonzero;stroke:none"
                   id="path19197" />
              </g>
              <g
                 transform="translate(368.5564,377.4916)"
                 id="g19203">
                <path
                   d="m 0,0 c -1.92,-3.461 -0.67,-7.823 2.791,-9.743 3.461,-1.92 7.823,-0.67 9.742,2.791 1.92,3.461 0.671,7.823 -2.79,9.743 C 6.282,4.711 1.92,3.461 0,0 M 2.344,-1.3 C 3.546,0.867 6.276,1.649 8.443,0.447 10.609,-0.755 11.392,-3.485 10.19,-5.652 8.988,-7.819 6.257,-8.601 4.091,-7.399 1.924,-6.197 1.142,-3.467 2.344,-1.3"
                   style="fill:#d77f72;fill-opacity:1;fill-rule:nonzero;stroke:none"
                   id="path19201" />
              </g>
              <g
                 transform="translate(368.5685,377.5042)"
                 id="g19207">
                <path
                   d="m 0,0 c -1.92,-3.461 -0.67,-7.823 2.791,-9.743 3.461,-1.92 7.823,-0.67 9.742,2.791 1.92,3.461 0.671,7.823 -2.79,9.743 C 6.282,4.711 1.92,3.461 0,0 M 2.344,-1.3 C 3.546,0.867 6.276,1.649 8.443,0.447 10.609,-0.755 11.392,-3.485 10.19,-5.652 8.988,-7.819 6.257,-8.601 4.091,-7.399 1.924,-6.197 1.142,-3.467 2.344,-1.3"
                   style="fill:#d67e70;fill-opacity:1;fill-rule:nonzero;stroke:none"
                   id="path19205" />
              </g>
              <g
                 transform="translate(368.5805,377.5169)"
                 id="g19211">
                <path
                   d="m 0,0 c -1.92,-3.461 -0.67,-7.823 2.791,-9.743 3.461,-1.92 7.823,-0.67 9.743,2.791 1.919,3.461 0.67,7.823 -2.791,9.743 C 6.282,4.711 1.92,3.461 0,0 M 2.344,-1.3 C 3.546,0.867 6.276,1.649 8.443,0.447 10.609,-0.755 11.392,-3.485 10.19,-5.652 8.988,-7.819 6.257,-8.601 4.091,-7.399 1.924,-6.197 1.142,-3.467 2.344,-1.3"
                   style="fill:#d67c6f;fill-opacity:1;fill-rule:nonzero;stroke:none"
                   id="path19209" />
              </g>
              <g
                 transform="translate(368.5925,377.5295)"
                 id="g19215">
                <path
                   d="m 0,0 c -1.92,-3.461 -0.67,-7.823 2.791,-9.743 3.461,-1.92 7.823,-0.67 9.742,2.791 1.92,3.461 0.671,7.823 -2.79,9.743 C 6.282,4.711 1.92,3.461 0,0 M 2.344,-1.3 C 3.546,0.867 6.276,1.649 8.443,0.447 10.609,-0.755 11.392,-3.485 10.19,-5.652 8.988,-7.819 6.257,-8.601 4.091,-7.399 1.924,-6.197 1.142,-3.467 2.344,-1.3"
                   style="fill:#d57b6d;fill-opacity:1;fill-rule:nonzero;stroke:none"
                   id="path19213" />
              </g>
              <g
                 transform="translate(368.6046,377.5421)"
                 id="g19219">
                <path
                   d="m 0,0 c -1.92,-3.461 -0.67,-7.823 2.791,-9.743 3.461,-1.92 7.823,-0.67 9.742,2.791 1.92,3.461 0.671,7.823 -2.79,9.743 C 6.282,4.711 1.92,3.461 0,0 M 2.344,-1.3 C 3.546,0.867 6.276,1.649 8.443,0.447 10.609,-0.755 11.392,-3.485 10.19,-5.652 8.988,-7.819 6.257,-8.601 4.091,-7.399 1.924,-6.197 1.142,-3.467 2.344,-1.3"
                   style="fill:#d57a6c;fill-opacity:1;fill-rule:nonzero;stroke:none"
                   id="path19217" />
              </g>
              <g
                 transform="translate(368.6166,377.5547)"
                 id="g19223">
                <path
                   d="m 0,0 c -1.92,-3.461 -0.67,-7.823 2.791,-9.743 3.461,-1.92 7.823,-0.67 9.742,2.791 1.92,3.461 0.671,7.823 -2.79,9.743 C 6.282,4.711 1.92,3.461 0,0 M 2.344,-1.3 C 3.546,0.867 6.276,1.649 8.443,0.447 10.609,-0.755 11.392,-3.485 10.19,-5.652 8.988,-7.819 6.257,-8.601 4.091,-7.399 1.924,-6.197 1.142,-3.467 2.344,-1.3"
                   style="fill:#d5786b;fill-opacity:1;fill-rule:nonzero;stroke:none"
                   id="path19221" />
              </g>
              <g
                 transform="translate(368.6286,377.5673)"
                 id="g19227">
                <path
                   d="m 0,0 c -1.92,-3.461 -0.67,-7.823 2.791,-9.743 3.461,-1.92 7.823,-0.67 9.742,2.791 1.92,3.461 0.671,7.823 -2.79,9.743 C 6.282,4.711 1.92,3.461 0,0 M 2.344,-1.3 C 3.546,0.867 6.276,1.649 8.443,0.447 10.609,-0.755 11.392,-3.485 10.19,-5.652 8.988,-7.819 6.257,-8.601 4.091,-7.399 1.924,-6.197 1.142,-3.467 2.344,-1.3"
                   style="fill:#d47769;fill-opacity:1;fill-rule:nonzero;stroke:none"
                   id="path19225" />
              </g>
              <g
                 transform="translate(368.6407,377.58)"
                 id="g19231">
                <path
                   d="m 0,0 c -1.92,-3.461 -0.67,-7.823 2.791,-9.743 3.461,-1.92 7.823,-0.67 9.743,2.791 1.919,3.461 0.67,7.823 -2.791,9.743 C 6.282,4.711 1.92,3.461 0,0 M 2.344,-1.3 C 3.546,0.867 6.276,1.649 8.443,0.447 10.609,-0.755 11.392,-3.485 10.19,-5.652 8.988,-7.819 6.257,-8.601 4.091,-7.399 1.924,-6.197 1.142,-3.467 2.344,-1.3"
                   style="fill:#d47568;fill-opacity:1;fill-rule:nonzero;stroke:none"
                   id="path19229" />
              </g>
              <g
                 transform="translate(368.6527,377.5926)"
                 id="g19235">
                <path
                   d="m 0,0 c -1.92,-3.461 -0.67,-7.823 2.791,-9.743 3.461,-1.92 7.823,-0.67 9.742,2.791 1.92,3.461 0.671,7.823 -2.79,9.743 C 6.282,4.711 1.92,3.461 0,0 M 2.344,-1.3 C 3.546,0.867 6.276,1.649 8.443,0.447 10.609,-0.755 11.392,-3.485 10.19,-5.652 8.988,-7.819 6.257,-8.601 4.091,-7.399 1.924,-6.197 1.142,-3.467 2.344,-1.3"
                   style="fill:#d37466;fill-opacity:1;fill-rule:nonzero;stroke:none"
                   id="path19233" />
              </g>
              <g
                 transform="translate(368.6647,377.6052)"
                 id="g19239">
                <path
                   d="m 0,0 c -1.92,-3.461 -0.67,-7.823 2.791,-9.743 3.461,-1.92 7.823,-0.67 9.742,2.791 1.92,3.461 0.671,7.823 -2.79,9.743 C 6.282,4.711 1.92,3.461 0,0 M 2.344,-1.3 C 3.546,0.867 6.276,1.649 8.443,0.447 10.609,-0.755 11.392,-3.485 10.19,-5.652 8.988,-7.819 6.257,-8.601 4.091,-7.399 1.924,-6.197 1.142,-3.467 2.344,-1.3"
                   style="fill:#d37365;fill-opacity:1;fill-rule:nonzero;stroke:none"
                   id="path19237" />
              </g>
              <g
                 transform="translate(368.6768,377.6178)"
                 id="g19243">
                <path
                   d="m 0,0 c -1.92,-3.461 -0.67,-7.823 2.791,-9.743 3.461,-1.92 7.823,-0.67 9.742,2.791 1.92,3.461 0.671,7.823 -2.79,9.743 C 6.282,4.711 1.92,3.461 0,0 M 2.344,-1.3 C 3.546,0.867 6.276,1.649 8.443,0.447 10.609,-0.755 11.392,-3.485 10.19,-5.652 8.988,-7.819 6.257,-8.601 4.091,-7.399 1.924,-6.197 1.142,-3.467 2.344,-1.3"
                   style="fill:#d27163;fill-opacity:1;fill-rule:nonzero;stroke:none"
                   id="path19241" />
              </g>
              <g
                 transform="translate(368.6888,377.6304)"
                 id="g19247">
                <path
                   d="m 0,0 c -1.92,-3.461 -0.67,-7.823 2.791,-9.743 3.461,-1.92 7.823,-0.67 9.742,2.791 1.92,3.461 0.671,7.823 -2.79,9.743 C 6.282,4.711 1.92,3.461 0,0 M 2.344,-1.3 C 3.546,0.867 6.276,1.649 8.443,0.447 10.609,-0.755 11.392,-3.485 10.19,-5.652 8.988,-7.819 6.257,-8.601 4.091,-7.399 1.924,-6.197 1.142,-3.467 2.344,-1.3"
                   style="fill:#d27062;fill-opacity:1;fill-rule:nonzero;stroke:none"
                   id="path19245" />
              </g>
              <g
                 transform="translate(368.7008,377.643)"
                 id="g19251">
                <path
                   d="m 0,0 c -1.92,-3.461 -0.67,-7.823 2.791,-9.743 3.461,-1.92 7.823,-0.67 9.743,2.791 1.919,3.461 0.67,7.823 -2.791,9.743 C 6.282,4.711 1.92,3.461 0,0 M 2.344,-1.3 C 3.546,0.867 6.276,1.649 8.443,0.447 10.609,-0.755 11.392,-3.485 10.19,-5.652 8.988,-7.819 6.257,-8.601 4.091,-7.399 1.924,-6.197 1.142,-3.467 2.344,-1.3"
                   style="fill:#d26f60;fill-opacity:1;fill-rule:nonzero;stroke:none"
                   id="path19249" />
              </g>
              <g
                 transform="translate(368.7129,377.6556)"
                 id="g19255">
                <path
                   d="m 0,0 c -1.92,-3.461 -0.67,-7.823 2.791,-9.743 3.461,-1.92 7.823,-0.67 9.742,2.791 1.92,3.461 0.671,7.823 -2.79,9.743 C 6.282,4.711 1.92,3.461 0,0 M 2.344,-1.3 C 3.546,0.867 6.276,1.649 8.443,0.447 10.609,-0.755 11.392,-3.485 10.19,-5.652 8.988,-7.819 6.257,-8.601 4.091,-7.399 1.924,-6.197 1.142,-3.467 2.344,-1.3"
                   style="fill:#d16d5f;fill-opacity:1;fill-rule:nonzero;stroke:none"
                   id="path19253" />
              </g>
              <g
                 transform="translate(368.7249,377.6682)"
                 id="g19259">
                <path
                   d="m 0,0 c -1.92,-3.461 -0.67,-7.823 2.791,-9.743 3.461,-1.92 7.823,-0.67 9.742,2.791 1.92,3.461 0.671,7.823 -2.79,9.743 C 6.282,4.711 1.92,3.461 0,0 M 2.344,-1.3 C 3.546,0.867 6.276,1.649 8.443,0.447 10.609,-0.755 11.392,-3.485 10.19,-5.652 8.988,-7.819 6.257,-8.601 4.091,-7.399 1.924,-6.197 1.142,-3.467 2.344,-1.3"
                   style="fill:#d16c5d;fill-opacity:1;fill-rule:nonzero;stroke:none"
                   id="path19257" />
              </g>
              <g
                 transform="translate(368.737,377.6809)"
                 id="g19263">
                <path
                   d="m 0,0 c -1.92,-3.461 -0.67,-7.823 2.791,-9.743 3.461,-1.92 7.823,-0.67 9.742,2.791 1.92,3.461 0.671,7.823 -2.79,9.743 C 6.282,4.711 1.92,3.461 0,0 M 2.344,-1.3 C 3.546,0.867 6.276,1.649 8.443,0.447 10.609,-0.755 11.392,-3.485 10.19,-5.652 8.988,-7.819 6.257,-8.601 4.091,-7.399 1.924,-6.197 1.142,-3.467 2.344,-1.3"
                   style="fill:#d06b5c;fill-opacity:1;fill-rule:nonzero;stroke:none"
                   id="path19261" />
              </g>
              <g
                 transform="translate(368.749,377.6935)"
                 id="g19267">
                <path
                   d="m 0,0 c -1.92,-3.461 -0.67,-7.823 2.791,-9.743 3.461,-1.92 7.823,-0.67 9.742,2.791 1.92,3.461 0.671,7.823 -2.79,9.743 C 6.282,4.711 1.92,3.461 0,0 M 2.344,-1.3 C 3.546,0.867 6.276,1.649 8.443,0.447 10.609,-0.755 11.392,-3.485 10.19,-5.652 8.988,-7.819 6.257,-8.601 4.091,-7.399 1.924,-6.197 1.142,-3.467 2.344,-1.3"
                   style="fill:#d0695a;fill-opacity:1;fill-rule:nonzero;stroke:none"
                   id="path19265" />
              </g>
              <g
                 transform="translate(368.761,377.7061)"
                 id="g19271">
                <path
                   d="m 0,0 c -1.92,-3.461 -0.67,-7.823 2.791,-9.743 3.461,-1.92 7.823,-0.67 9.743,2.791 1.919,3.461 0.67,7.823 -2.791,9.743 C 6.282,4.711 1.92,3.461 0,0 M 2.344,-1.3 C 3.546,0.867 6.276,1.649 8.443,0.447 10.609,-0.755 11.392,-3.485 10.19,-5.652 8.988,-7.819 6.257,-8.601 4.091,-7.399 1.924,-6.197 1.142,-3.467 2.344,-1.3"
                   style="fill:#cf6859;fill-opacity:1;fill-rule:nonzero;stroke:none"
                   id="path19269" />
              </g>
              <g
                 transform="translate(368.7731,377.7187)"
                 id="g19275">
                <path
                   d="m 0,0 c -1.92,-3.461 -0.67,-7.823 2.791,-9.743 3.461,-1.92 7.823,-0.67 9.742,2.791 1.92,3.461 0.671,7.823 -2.79,9.743 C 6.282,4.711 1.92,3.461 0,0 M 2.344,-1.3 C 3.546,0.867 6.276,1.649 8.443,0.447 10.609,-0.755 11.392,-3.485 10.19,-5.652 8.988,-7.819 6.257,-8.601 4.091,-7.399 1.924,-6.197 1.142,-3.467 2.344,-1.3"
                   style="fill:#cf6757;fill-opacity:1;fill-rule:nonzero;stroke:none"
                   id="path19273" />
              </g>
              <g
                 transform="translate(368.7851,377.7313)"
                 id="g19279">
                <path
                   d="m 0,0 c -1.92,-3.461 -0.67,-7.823 2.791,-9.743 3.461,-1.92 7.823,-0.67 9.742,2.791 1.92,3.461 0.671,7.823 -2.79,9.743 C 6.282,4.711 1.92,3.461 0,0 M 2.344,-1.3 C 3.546,0.867 6.276,1.649 8.443,0.447 10.609,-0.755 11.392,-3.485 10.19,-5.652 8.988,-7.819 6.257,-8.601 4.091,-7.399 1.924,-6.197 1.142,-3.467 2.344,-1.3"
                   style="fill:#cf6556;fill-opacity:1;fill-rule:nonzero;stroke:none"
                   id="path19277" />
              </g>
              <g
                 transform="translate(368.7971,377.744)"
                 id="g19283">
                <path
                   d="m 0,0 c -1.92,-3.461 -0.67,-7.823 2.791,-9.743 3.461,-1.92 7.823,-0.67 9.742,2.791 1.92,3.461 0.671,7.823 -2.79,9.743 C 6.282,4.711 1.92,3.461 0,0 M 2.344,-1.3 C 3.546,0.867 6.276,1.649 8.443,0.447 10.609,-0.755 11.392,-3.485 10.19,-5.652 8.988,-7.819 6.257,-8.601 4.091,-7.399 1.924,-6.197 1.142,-3.467 2.344,-1.3"
                   style="fill:#ce6454;fill-opacity:1;fill-rule:nonzero;stroke:none"
                   id="path19281" />
              </g>
              <g
                 transform="translate(368.8092,377.7566)"
                 id="g19287">
                <path
                   d="m 0,0 c -1.92,-3.461 -0.67,-7.823 2.791,-9.743 3.461,-1.92 7.823,-0.67 9.742,2.791 1.92,3.461 0.671,7.823 -2.79,9.743 C 6.282,4.711 1.92,3.461 0,0 M 2.344,-1.3 C 3.546,0.867 6.276,1.649 8.443,0.447 10.609,-0.755 11.392,-3.485 10.19,-5.652 8.988,-7.819 6.257,-8.601 4.091,-7.399 1.924,-6.197 1.142,-3.467 2.344,-1.3"
                   style="fill:#ce6353;fill-opacity:1;fill-rule:nonzero;stroke:none"
                   id="path19285" />
              </g>
              <g
                 transform="translate(368.8212,377.7692)"
                 id="g19291">
                <path
                   d="m 0,0 c -1.92,-3.461 -0.67,-7.823 2.791,-9.743 3.461,-1.92 7.823,-0.67 9.743,2.791 1.919,3.461 0.67,7.823 -2.791,9.743 C 6.282,4.711 1.92,3.461 0,0 M 2.344,-1.3 C 3.546,0.867 6.276,1.649 8.443,0.447 10.609,-0.755 11.392,-3.485 10.19,-5.652 8.988,-7.819 6.257,-8.601 4.091,-7.399 1.924,-6.197 1.142,-3.467 2.344,-1.3"
                   style="fill:#cd6151;fill-opacity:1;fill-rule:nonzero;stroke:none"
                   id="path19289" />
              </g>
              <g
                 transform="translate(368.8333,377.7818)"
                 id="g19295">
                <path
                   d="m 0,0 c -1.92,-3.461 -0.67,-7.823 2.791,-9.743 3.461,-1.92 7.823,-0.67 9.742,2.791 1.92,3.461 0.671,7.823 -2.79,9.743 C 6.282,4.711 1.92,3.461 0,0 M 2.344,-1.3 C 3.546,0.867 6.276,1.649 8.443,0.447 10.609,-0.755 11.392,-3.485 10.19,-5.652 8.988,-7.819 6.257,-8.601 4.091,-7.399 1.924,-6.197 1.142,-3.467 2.344,-1.3"
                   style="fill:#cd6050;fill-opacity:1;fill-rule:nonzero;stroke:none"
                   id="path19293" />
              </g>
              <g
                 transform="translate(368.8453,377.7944)"
                 id="g19299">
                <path
                   d="m 0,0 c -1.92,-3.461 -0.67,-7.823 2.791,-9.743 3.461,-1.92 7.823,-0.67 9.742,2.791 1.92,3.461 0.671,7.823 -2.79,9.743 C 6.282,4.711 1.92,3.461 0,0 M 2.344,-1.3 C 3.546,0.867 6.276,1.649 8.443,0.447 10.609,-0.755 11.392,-3.485 10.19,-5.652 8.988,-7.819 6.257,-8.601 4.091,-7.399 1.924,-6.197 1.142,-3.467 2.344,-1.3"
                   style="fill:#cd5f4e;fill-opacity:1;fill-rule:nonzero;stroke:none"
                   id="path19297" />
              </g>
              <g
                 transform="translate(368.8573,377.807)"
                 id="g19303">
                <path
                   d="m 0,0 c -1.92,-3.461 -0.67,-7.823 2.791,-9.743 3.461,-1.92 7.823,-0.67 9.742,2.791 1.92,3.461 0.671,7.823 -2.79,9.743 C 6.282,4.711 1.92,3.461 0,0 M 2.344,-1.3 C 3.546,0.867 6.276,1.649 8.443,0.447 10.609,-0.755 11.392,-3.485 10.19,-5.652 8.988,-7.819 6.257,-8.601 4.091,-7.399 1.924,-6.197 1.142,-3.467 2.344,-1.3"
                   style="fill:#cc5d4d;fill-opacity:1;fill-rule:nonzero;stroke:none"
                   id="path19301" />
              </g>
              <g
                 transform="translate(368.8694,377.8196)"
                 id="g19307">
                <path
                   d="m 0,0 c -1.92,-3.461 -0.67,-7.823 2.791,-9.743 3.461,-1.92 7.823,-0.67 9.742,2.791 1.92,3.461 0.671,7.823 -2.79,9.743 C 6.282,4.711 1.92,3.461 0,0 M 2.344,-1.3 C 3.546,0.867 6.276,1.649 8.443,0.447 10.609,-0.755 11.392,-3.485 10.19,-5.652 8.988,-7.819 6.257,-8.601 4.091,-7.399 1.924,-6.197 1.142,-3.467 2.344,-1.3"
                   style="fill:#cc5c4b;fill-opacity:1;fill-rule:nonzero;stroke:none"
                   id="path19305" />
              </g>
              <g
                 transform="translate(368.8814,377.8322)"
                 id="g19311">
                <path
                   d="m 0,0 c -1.92,-3.461 -0.67,-7.823 2.791,-9.743 3.461,-1.92 7.823,-0.67 9.742,2.791 1.92,3.461 0.671,7.823 -2.79,9.743 C 6.282,4.711 1.92,3.461 0,0 M 2.344,-1.3 C 3.546,0.867 6.276,1.649 8.443,0.447 10.609,-0.755 11.392,-3.485 10.19,-5.652 8.988,-7.819 6.257,-8.601 4.091,-7.399 1.924,-6.197 1.142,-3.467 2.344,-1.3"
                   style="fill:#cb5a4a;fill-opacity:1;fill-rule:nonzero;stroke:none"
                   id="path19309" />
              </g>
              <g
                 transform="translate(368.8934,377.8449)"
                 id="g19315">
                <path
                   d="m 0,0 c -1.92,-3.461 -0.67,-7.823 2.791,-9.743 3.461,-1.92 7.823,-0.67 9.742,2.791 1.92,3.461 0.671,7.823 -2.79,9.743 C 6.282,4.711 1.92,3.461 0,0 M 2.344,-1.3 C 3.546,0.867 6.276,1.649 8.443,0.447 10.609,-0.755 11.392,-3.485 10.19,-5.652 8.988,-7.819 6.257,-8.601 4.091,-7.399 1.924,-6.197 1.142,-3.467 2.344,-1.3"
                   style="fill:#cb5948;fill-opacity:1;fill-rule:nonzero;stroke:none"
                   id="path19313" />
              </g>
              <g
                 transform="translate(368.9055,377.8575)"
                 id="g19319">
                <path
                   d="m 0,0 c -1.92,-3.461 -0.67,-7.823 2.791,-9.743 3.461,-1.92 7.823,-0.67 9.742,2.791 1.92,3.461 0.671,7.823 -2.79,9.743 C 6.282,4.711 1.92,3.461 0,0 M 2.344,-1.3 C 3.546,0.867 6.276,1.649 8.443,0.447 10.609,-0.755 11.392,-3.485 10.19,-5.652 8.988,-7.819 6.257,-8.601 4.091,-7.399 1.924,-6.197 1.142,-3.467 2.344,-1.3"
                   style="fill:#ca5847;fill-opacity:1;fill-rule:nonzero;stroke:none"
                   id="path19317" />
              </g>
              <g
                 transform="translate(368.9175,377.8701)"
                 id="g19323">
                <path
                   d="m 0,0 c -1.92,-3.461 -0.67,-7.823 2.791,-9.743 3.461,-1.92 7.823,-0.67 9.742,2.791 1.92,3.461 0.671,7.823 -2.79,9.743 C 6.282,4.711 1.92,3.461 0,0 M 2.344,-1.3 C 3.546,0.867 6.276,1.649 8.443,0.447 10.609,-0.755 11.392,-3.485 10.19,-5.652 8.988,-7.819 6.257,-8.601 4.091,-7.399 1.924,-6.197 1.142,-3.467 2.344,-1.3"
                   style="fill:#ca5645;fill-opacity:1;fill-rule:nonzero;stroke:none"
                   id="path19321" />
              </g>
              <g
                 transform="translate(368.9295,377.8827)"
                 id="g19327">
                <path
                   d="m 0,0 c -1.92,-3.461 -0.67,-7.823 2.791,-9.743 3.461,-1.92 7.823,-0.67 9.742,2.791 1.92,3.461 0.671,7.823 -2.79,9.743 C 6.282,4.711 1.92,3.461 0,0 M 2.344,-1.3 C 3.546,0.867 6.276,1.649 8.443,0.447 10.609,-0.755 11.392,-3.485 10.19,-5.652 8.988,-7.819 6.257,-8.601 4.091,-7.399 1.924,-6.197 1.142,-3.467 2.344,-1.3"
                   style="fill:#ca5544;fill-opacity:1;fill-rule:nonzero;stroke:none"
                   id="path19325" />
              </g>
              <g
                 transform="translate(368.9416,377.8953)"
                 id="g19331">
                <path
                   d="m 0,0 c -1.92,-3.461 -0.67,-7.823 2.791,-9.743 3.461,-1.92 7.823,-0.67 9.742,2.791 1.92,3.461 0.671,7.823 -2.79,9.743 C 6.282,4.711 1.92,3.461 0,0 M 2.344,-1.3 C 3.546,0.867 6.276,1.649 8.443,0.447 10.609,-0.755 11.392,-3.485 10.19,-5.652 8.988,-7.819 6.257,-8.601 4.091,-7.399 1.924,-6.197 1.142,-3.467 2.344,-1.3"
                   style="fill:#c95442;fill-opacity:1;fill-rule:nonzero;stroke:none"
                   id="path19329" />
              </g>
              <g
                 transform="translate(368.9536,377.9079)"
                 id="g19335">
                <path
                   d="m 0,0 c -1.92,-3.461 -0.67,-7.823 2.791,-9.743 3.461,-1.92 7.823,-0.67 9.742,2.791 1.92,3.461 0.671,7.823 -2.79,9.743 C 6.282,4.711 1.92,3.461 0,0 M 2.344,-1.3 C 3.546,0.867 6.276,1.649 8.443,0.447 10.609,-0.755 11.392,-3.485 10.19,-5.652 8.988,-7.819 6.257,-8.601 4.091,-7.399 1.924,-6.197 1.142,-3.467 2.344,-1.3"
                   style="fill:#c95241;fill-opacity:1;fill-rule:nonzero;stroke:none"
                   id="path19333" />
              </g>
              <g
                 transform="translate(368.9656,377.9206)"
                 id="g19339">
                <path
                   d="m 0,0 c -1.92,-3.461 -0.67,-7.823 2.791,-9.743 3.461,-1.92 7.823,-0.67 9.742,2.791 1.92,3.461 0.671,7.823 -2.79,9.743 C 6.282,4.711 1.92,3.461 0,0 M 2.344,-1.3 C 3.546,0.867 6.276,1.649 8.443,0.447 10.609,-0.755 11.392,-3.485 10.19,-5.652 8.988,-7.819 6.257,-8.601 4.091,-7.399 1.924,-6.197 1.142,-3.467 2.344,-1.3"
                   style="fill:#c8513f;fill-opacity:1;fill-rule:nonzero;stroke:none"
                   id="path19337" />
              </g>
              <g
                 transform="translate(368.9777,377.9332)"
                 id="g19343">
                <path
                   d="m 0,0 c -1.92,-3.461 -0.67,-7.823 2.791,-9.743 3.461,-1.92 7.823,-0.67 9.742,2.791 1.92,3.461 0.671,7.823 -2.79,9.743 C 6.282,4.711 1.92,3.461 0,0 M 2.344,-1.3 C 3.546,0.867 6.276,1.649 8.443,0.447 10.609,-0.755 11.392,-3.485 10.19,-5.652 8.988,-7.819 6.257,-8.601 4.091,-7.399 1.924,-6.197 1.142,-3.467 2.344,-1.3"
                   style="fill:#c8503e;fill-opacity:1;fill-rule:nonzero;stroke:none"
                   id="path19341" />
              </g>
              <g
                 transform="translate(368.9897,377.9458)"
                 id="g19347">
                <path
                   d="m 0,0 c -1.92,-3.461 -0.67,-7.823 2.791,-9.743 3.461,-1.92 7.823,-0.67 9.742,2.791 1.92,3.461 0.671,7.823 -2.79,9.743 C 6.282,4.711 1.92,3.461 0,0 M 2.344,-1.3 C 3.546,0.867 6.276,1.649 8.443,0.447 10.609,-0.755 11.392,-3.485 10.19,-5.652 8.988,-7.819 6.257,-8.601 4.091,-7.399 1.924,-6.197 1.142,-3.467 2.344,-1.3"
                   style="fill:#c74e3c;fill-opacity:1;fill-rule:nonzero;stroke:none"
                   id="path19345" />
              </g>
              <g
                 transform="translate(369.0017,377.9584)"
                 id="g19351">
                <path
                   d="m 0,0 c -1.92,-3.461 -0.67,-7.823 2.791,-9.743 3.461,-1.92 7.823,-0.67 9.742,2.791 1.92,3.461 0.671,7.823 -2.79,9.743 C 6.282,4.711 1.92,3.461 0,0 M 2.344,-1.3 C 3.546,0.867 6.276,1.649 8.443,0.447 10.609,-0.755 11.392,-3.485 10.19,-5.652 8.988,-7.819 6.257,-8.601 4.091,-7.399 1.924,-6.197 1.142,-3.467 2.344,-1.3"
                   style="fill:#c74d3b;fill-opacity:1;fill-rule:nonzero;stroke:none"
                   id="path19349" />
              </g>
            </g>
          </g>
        </g>
      </g>
    </g>
    <g
       id="g19399"
       style="display:none"
       transform="matrix(0.35277777,0,0,-0.35277777,36.630115,259.55758)">
      <g
         id="g19401"
         clip-path="url(#clipPath19405)">
        <g
           id="g19407"
           transform="translate(381.0056,370.4513)">
          <path
             d="m 0,0 c 1.92,3.461 0.67,7.823 -2.791,9.743 -2.798,1.552 -6.185,1.031 -8.394,-1.055 2.167,2.54 5.891,3.292 8.924,1.61 C 1.2,8.378 2.449,4.016 0.53,0.555 0.162,-0.107 -0.296,-0.687 -0.819,-1.181 -0.513,-0.822 -0.238,-0.428 0,0"
             style="fill:#e9644c;fill-opacity:1;fill-rule:nonzero;stroke:none"
             id="path19409" />
        </g>
      </g>
    </g>
    <g
       id="g19411"
       style="display:none"
       transform="matrix(0.35277777,0,0,-0.35277777,36.630115,259.55758)">
      <g
         id="g19413">
        <g
           id="g19419">
          <g
             id="g19421">
            <path
               d="m 374.163,415.545 c -22.762,-0.534 -40.78,-19.42 -40.245,-42.181 v 0 c 0.535,-22.761 19.42,-40.78 42.181,-40.244 v 0 c 22.762,0.534 40.78,19.419 40.245,42.181 v 0 c -0.526,22.43 -18.876,40.255 -41.192,40.256 v 0 c -0.329,0 -0.658,-0.004 -0.989,-0.012 m -18.23,-75.923 c -19.253,10.679 -26.204,34.944 -15.525,54.196 v 0 c 10.679,19.253 34.943,26.204 54.196,15.524 v 0 c 19.253,-10.678 26.204,-34.943 15.525,-54.196 v 0 c -7.281,-13.127 -20.878,-20.535 -34.896,-20.535 v 0 c -6.542,0 -13.174,1.613 -19.3,5.011"
               style="fill:url(#linearGradient19427);stroke:none"
               id="path19429" />
          </g>
        </g>
      </g>
    </g>
  </g>
  <g
     inkscape:groupmode="layer"
     id="layer5"
     inkscape:label="Capa 2 copia 1"
     style="display:inline" />
  <g
     inkscape:groupmode="layer"
     id="g35977"
     inkscape:label="Capa 2 copia"
     style="display:inline">
    <path
       style="mix-blend-mode:normal;fill:url(#linearGradient38419);fill-opacity:1;stroke:none;stroke-width:0.264583px;stroke-linecap:butt;stroke-linejoin:miter;stroke-opacity:0.68984"
       d="m 5.3738877,0.17606354 c 0,0 0.6501688,1.01122516 0.2151577,1.76290226 C 5.1540344,2.6906426 3.1987564,3.8741719 2.7165142,4.5589064 2.1679932,5.4501194 2.2782186,6.2313656 2.7802132,7.1071856 3.1673734,7.7844628 3.9891745,8.2697129 3.909154,8.1577717 3.6803062,7.8376256 3.4809926,7.6801336 3.3161792,7.0874184 2.952925,5.7810503 4.2292916,4.7571761 5.0354593,4.0542989 5.5029585,3.6487991 5.8670076,3.2586941 5.9339792,3.0004141 6.1890115,2.0168226 5.3738877,0.17606354 5.3738877,0.17606354 Z"
       id="path35975"
       sodipodi:nodetypes="czccsscsc" />
  </g>
  <g
     inkscape:groupmode="layer"
     id="layer3"
     inkscape:label="Capa 3"
     style="display:inline">
    <path
       style="fill:url(#linearGradient14398);fill-opacity:1;stroke:none;stroke-width:0.264583px;stroke-linecap:butt;stroke-linejoin:miter;stroke-opacity:1"
       d="m 6.1204875,1.9701016 c 0,0 0.3030946,1.0416679 -0.5613803,1.8150688 C 4.6946276,4.5585719 3.7434635,5.3317863 3.4836112,6.2126725 3.2237544,7.0935601 3.6068471,7.5621504 3.9577183,8.0573353 4.3085896,8.552521 5.9100128,8.1204539 6.4569901,6.3903806 7.0039719,4.6603059 6.4416836,3.0690371 6.1204875,1.9701016 Z"
       id="path1853"
       sodipodi:nodetypes="czzzzc" />
  </g>
</svg>
