<?xml version="1.0" encoding="UTF-8" standalone="no"?>
<svg
   id="Layer_1"
   data-name="Layer 1"
   viewBox="0 0 24 24"
   width="512"
   height="512"
   version="1.1"
   sodipodi:docname="fhirpath-dark.svg"
   inkscape:version="1.1.2 (b8e25be8, 2022-02-05)"
   xmlns:inkscape="http://www.inkscape.org/namespaces/inkscape"
   xmlns:sodipodi="http://sodipodi.sourceforge.net/DTD/sodipodi-0.dtd"
   xmlns="http://www.w3.org/2000/svg"
   xmlns:svg="http://www.w3.org/2000/svg">
  <defs
     id="defs829" />
  <sodipodi:namedview
     id="namedview827"
     pagecolor="#ffffff"
     bordercolor="#666666"
     borderopacity="1.0"
     inkscape:pageshadow="2"
     inkscape:pageopacity="0.0"
     inkscape:pagecheckerboard="0"
     showgrid="false"
     inkscape:zoom="1.4042969"
     inkscape:cx="256"
     inkscape:cy="256.35605"
     inkscape:window-width="1269"
     inkscape:window-height="870"
     inkscape:window-x="0"
     inkscape:window-y="25"
     inkscape:window-maximized="0"
     inkscape:current-layer="Layer_1" />
  <path
     d="M12,24h-.057c-5.482,0-9.943-4.486-9.943-10,0-1.929,.666-4.07,1.874-6.031,.471-.765,1.373-1.126,2.241-.896,.869,.229,1.474,.987,1.505,1.885,.096,2.74,.753,6.014,3.338,6.043,1.081,.009,1.937-.747,2.027-1.727,.094-1.026-.277-1.83-.746-2.847-.552-1.2-1.24-2.692-1.24-4.901,0-1.707,.345-3.412,.687-4.345C11.941,.488,12.542,.033,13.256-.008c.739-.04,1.414,.367,1.753,1.042,.802,1.595,1.938,3.069,3.036,4.495,1.972,2.562,4.011,5.211,3.956,8.487,0,5.464-4.483,9.95-9.994,9.983h-.006Z"
     id="path824"
     style="fill:#cccccc;fill-opacity:1" />
</svg>
