<?xml version="1.0" encoding="UTF-8" standalone="no"?>
<!-- Created with Inkscape (http://www.inkscape.org/) -->

<svg
   width="32"
   height="32"
   viewBox="0 0 8.4666665 8.4666669"
   version="1.1"
   id="svg914"
   inkscape:version="1.1.2 (b8e25be8, 2022-02-05)"
   sodipodi:docname="loadfhir.svg"
   xmlns:inkscape="http://www.inkscape.org/namespaces/inkscape"
   xmlns:sodipodi="http://sodipodi.sourceforge.net/DTD/sodipodi-0.dtd"
   xmlns:xlink="http://www.w3.org/1999/xlink"
   xmlns="http://www.w3.org/2000/svg"
   xmlns:svg="http://www.w3.org/2000/svg">
  <sodipodi:namedview
     id="namedview916"
     pagecolor="#ffffff"
     bordercolor="#666666"
     borderopacity="1.0"
     inkscape:pageshadow="2"
     inkscape:pageopacity="0.0"
     inkscape:pagecheckerboard="0"
     inkscape:document-units="mm"
     showgrid="false"
     inkscape:zoom="7.1096866"
     inkscape:cx="36.429173"
     inkscape:cy="32.068924"
     inkscape:window-width="1920"
     inkscape:window-height="1080"
     inkscape:window-x="139"
     inkscape:window-y="0"
     inkscape:window-maximized="0"
     inkscape:current-layer="layer1"
     units="px" />
  <defs
     id="defs911">
    <linearGradient
       inkscape:collect="always"
       id="linearGradient34425">
      <stop
         style="stop-color:#ae4033;stop-opacity:1"
         offset="0"
         id="stop34421" />
      <stop
         style="stop-color:#ffff00;stop-opacity:1"
         offset="1"
         id="stop34423" />
    </linearGradient>
    <linearGradient
       inkscape:collect="always"
       id="linearGradient14396">
      <stop
         style="stop-color:#b34435;stop-opacity:1"
         offset="0"
         id="stop14392" />
      <stop
         style="stop-color:#ffff00;stop-opacity:1"
         offset="1"
         id="stop14394" />
    </linearGradient>
    <linearGradient
       inkscape:collect="always"
       xlink:href="#linearGradient14396"
       id="linearGradient14398"
       x1="103.43914"
       y1="130.10196"
       x2="105.96089"
       y2="85.778992"
       gradientUnits="userSpaceOnUse"
       gradientTransform="matrix(0.12028297,0.0275442,-0.0275442,0.12028297,-6.8367575,-10.110997)" />
    <linearGradient
       x1="0"
       y1="0"
       x2="1"
       y2="0"
       gradientUnits="userSpaceOnUse"
       gradientTransform="matrix(-79.951225,-122.69254,122.69254,-79.951225,409.27066,426.72266)"
       spreadMethod="pad"
       id="linearGradient19427">
      <stop
         style="stop-opacity:1;stop-color:#8c2c25"
         offset="0"
         id="stop19423" />
      <stop
         style="stop-opacity:1;stop-color:#de5c57"
         offset="1"
         id="stop19425" />
    </linearGradient>
    <clipPath
       clipPathUnits="userSpaceOnUse"
       id="clipPath19405">
      <path
         d="M 0,500 H 500 V 0 H 0 Z"
         id="path19403" />
    </clipPath>
    <linearGradient
       x1="0"
       y1="0"
       x2="1"
       y2="0"
       gradientUnits="userSpaceOnUse"
       gradientTransform="matrix(-30.972202,-47.484215,47.484215,-30.972202,383.43195,386.99799)"
       spreadMethod="pad"
       id="linearGradient19395">
      <stop
         style="stop-opacity:1;stop-color:#e9644c"
         offset="0"
         id="stop19389" />
      <stop
         style="stop-opacity:1;stop-color:#e9644c"
         offset="0.32199253"
         id="stop19391" />
      <stop
         style="stop-opacity:1;stop-color:#8c2c25"
         offset="1"
         id="stop19393" />
    </linearGradient>
    <linearGradient
       x1="0"
       y1="0"
       x2="1"
       y2="0"
       gradientUnits="userSpaceOnUse"
       gradientTransform="matrix(-108.80192,-172.56386,172.56386,-108.80192,416.32626,440.44836)"
       spreadMethod="pad"
       id="linearGradient19373">
      <stop
         style="stop-opacity:1;stop-color:#e9644c"
         offset="0"
         id="stop19369" />
      <stop
         style="stop-opacity:1;stop-color:#8c2c25"
         offset="1"
         id="stop19371" />
    </linearGradient>
    <clipPath
       clipPathUnits="userSpaceOnUse"
       id="clipPath18811">
      <path
         d="M 0,500 H 500 V 0 H 0 Z"
         id="path18809" />
    </clipPath>
    <clipPath
       clipPathUnits="userSpaceOnUse"
       id="clipPath18819">
      <path
         d="m 366.512,381.65 h 15.924 v -16 h -15.924 z"
         id="path18817" />
    </clipPath>
    <linearGradient
       x1="0"
       y1="0"
       x2="1"
       y2="0"
       gradientUnits="userSpaceOnUse"
       gradientTransform="matrix(-78.160545,-121.92711,121.92711,-78.160545,396.91565,408.25101)"
       spreadMethod="pad"
       id="linearGradient18801">
      <stop
         style="stop-opacity:1;stop-color:#852f21"
         offset="0"
         id="stop18797" />
      <stop
         style="stop-opacity:1;stop-color:#e9644c"
         offset="1"
         id="stop18799" />
    </linearGradient>
    <linearGradient
       inkscape:collect="always"
       xlink:href="#linearGradient34425"
       id="linearGradient38419"
       gradientUnits="userSpaceOnUse"
       x1="91.485138"
       y1="83.018066"
       x2="107.00784"
       y2="63.080784"
       gradientTransform="matrix(0.12028297,0.0275442,-0.0275442,0.12028297,-7.0382975,-10.188474)" />
    <linearGradient
       inkscape:collect="always"
       xlink:href="#linearGradient14396"
       id="linearGradient10967"
       x1="0.33961341"
       y1="6.6690679"
       x2="8.3233595"
       y2="6.6690679"
       gradientUnits="userSpaceOnUse" />
    <linearGradient
       inkscape:collect="always"
       xlink:href="#linearGradient14396"
       id="linearGradient10969"
       x1="0.24835958"
       y1="1.7423695"
       x2="8.2321501"
       y2="1.7423695"
       gradientUnits="userSpaceOnUse" />
  </defs>
  <g
     inkscape:groupmode="layer"
     id="layer5"
     inkscape:label="Capa 2 copia 1"
     style="display:inline" />
  <g
     inkscape:groupmode="layer"
     id="layer1"
     inkscape:label="Capa 2 copia 2"
     style="display:inline">
    <path
       id="path18"
       style="fill:url(#linearGradient10967);fill-opacity:1.0;fill-rule:nonzero;stroke:none;stroke-width:0.0352778"
       d="m 0.34085283,5.2311845 c 0.0150166,-0.042817 0.0301108,-0.00801 0.0634411,0.026473 0.070486,0.073064 0.12370671,0.1713122 0.17684039,0.257269 -0.0210976,-0.035222 0.0646828,0.090282 0.0597104,0.083745 0.0378936,0.050412 0.0778067,0.099262 0.11859984,0.1474185 0.0945651,0.1115988 0.19566727,0.2167992 0.30279834,0.316429 0.2146845,0.1997188 0.4499921,0.377156 0.7007697,0.5289944 0.5114051,0.3096616 1.0876818,0.5095189 1.6825118,0.5737418 1.097398,0.1185979 2.2170287,-0.2230594 3.0759899,-0.9070227 L 6.2081683,5.8931857 8.3233595,5.4460039 7.5918382,7.5052097 7.2171252,7.0686657 C 6.4851421,7.7114226 5.5373738,8.0906025 4.5613843,8.1244436 3.5788085,8.1584662 2.6025418,7.8195211 1.8312893,7.2139639 1.3443759,6.8315631 0.96846238,6.349114 0.64130717,5.8273945 0.56778105,5.7101325 0.49904471,5.5869305 0.43725925,5.4630852 0.42753425,5.4435181 0.32741025,5.2694881 0.34085285,5.2311845" />
    <path
       id="path22"
       style="fill:url(#linearGradient10969);fill-opacity:1.0;fill-rule:nonzero;stroke:none;stroke-width:0.0352778"
       d="m 8.2309105,3.1802177 c -0.015,0.042862 -0.030166,0.00805 -0.06349,-0.026474 C 8.0969385,3.0806787 8.0437126,2.98243 7.9905804,2.8965207 8.0116344,2.9316937 7.9259424,2.8061917 7.9308844,2.8127287 7.8930004,2.7623167 7.8531164,2.7134677 7.8123252,2.6653573 7.7176637,2.5537113 7.6165632,2.448557 7.5094732,2.3488815 7.2948384,2.1491618 7.0594374,1.9717727 6.8086607,1.8198881 6.2973504,1.5102256 5.7209793,1.3103686 5.1261516,1.2461448 4.0287524,1.1275473 2.9091643,1.4692529 2.0502057,2.1531679 L 2.3635507,2.5182614 0.24835957,2.9654418 0.97992659,0.90618967 1.3545949,1.3427329 C 2.0866228,0.70002447 3.0343916,0.32079697 4.0103818,0.28700677 c 0.9825736,-0.034074 1.9587994,0.3048704 2.7300479,0.91042783 0.4869603,0.3824044 0.862873,0.8648521 1.189983,1.3865711 0.073528,0.1172622 0.1422601,0.2404631 0.2040487,0.364309 0.00976,0.019566 0.1098949,0.1935964 0.096449,0.2319014" />
  </g>
  <g
     inkscape:groupmode="layer"
     id="g35977"
     inkscape:label="Capa 2 copia"
     style="display:none">
    <path
       style="mix-blend-mode:normal;fill:url(#linearGradient38419);fill-opacity:1;stroke:none;stroke-width:0.264583px;stroke-linecap:butt;stroke-linejoin:miter;stroke-opacity:0.68984"
       d="m 3.1657216,0.09720047 c 0,0 0.6501688,1.01122513 0.2151577,1.76290223 -0.435011,0.7516768 -2.390289,1.9352061 -2.8725312,2.6199406 -0.548521,0.891213 -0.4382956,1.6724592 0.063699,2.5482792 C 0.9592073,7.7055997 1.7810084,8.1908498 1.7009879,8.0789086 1.4721401,7.7587625 1.2728265,7.6012705 1.1080131,7.0085553 0.7447589,5.7021872 2.0211255,4.678313 2.8272932,3.9754358 3.2947924,3.569936 3.6588415,3.179831 3.7258131,2.921551 3.9808454,1.9379595 3.1657216,0.09720047 3.1657216,0.09720047 Z"
       id="path35975"
       sodipodi:nodetypes="czccsscsc" />
  </g>
  <g
     inkscape:groupmode="layer"
     id="layer3"
     inkscape:label="Capa 3"
     style="display:none">
    <path
       style="fill:url(#linearGradient14398);fill-opacity:1;stroke:none;stroke-width:0.264583px;stroke-linecap:butt;stroke-linejoin:miter;stroke-opacity:1"
       d="m 3.9123214,1.8912385 c 0,0 0.3030946,1.0416679 -0.5613803,1.8150688 C 2.4864615,4.4797088 1.5352974,5.2529232 1.2754451,6.1338094 1.0155883,7.014697 1.398681,7.4832873 1.7495522,7.9784722 2.1004235,8.4736579 3.7018467,8.0415908 4.248824,6.3115175 4.7958058,4.5814428 4.2335175,2.990174 3.9123214,1.8912385 Z"
       id="path1853"
       sodipodi:nodetypes="czzzzc" />
  </g>
</svg>
